<?xml version="1.0" encoding="UTF-8" standalone="no"?>
<!-- Created with Inkscape (http://www.inkscape.org/) -->

<svg
   version="1.1"
   id="svg18"
   width="329.33334"
   height="284"
   viewBox="0 0 329.33334 284"
   sodipodi:docname="Figure2_012625.svg"
   inkscape:version="1.2.2 (b0a8486, 2022-12-01)"
   xmlns:inkscape="http://www.inkscape.org/namespaces/inkscape"
   xmlns:sodipodi="http://sodipodi.sourceforge.net/DTD/sodipodi-0.dtd"
   xmlns="http://www.w3.org/2000/svg"
   xmlns:svg="http://www.w3.org/2000/svg">
  <defs
     id="defs22" />
  <sodipodi:namedview
     id="namedview20"
     pagecolor="#ffffff"
     bordercolor="#000000"
     borderopacity="0.25"
     inkscape:showpageshadow="2"
     inkscape:pageopacity="0.0"
     inkscape:pagecheckerboard="0"
     inkscape:deskcolor="#d1d1d1"
     showgrid="false"
     inkscape:zoom="0.83098592"
     inkscape:cx="164.86441"
     inkscape:cy="142"
     inkscape:window-width="1419"
     inkscape:window-height="456"
     inkscape:window-x="0"
     inkscape:window-y="25"
     inkscape:window-maximized="0"
     inkscape:current-layer="g26">
    <inkscape:page
       x="0"
       y="0"
       id="page24"
       width="329.33334"
       height="284" />
  </sodipodi:namedview>
  <g
     id="g26"
     inkscape:groupmode="layer"
     inkscape:label="Page 1"
     transform="matrix(1.3333333,0,0,-1.3333333,0,284)">
    <g
       id="g34"
       transform="matrix(0.5,0,0,-0.5,-3.9925268,230.12501)">
      <path
         d="M 71.5,409.5 H 498 V 34.5 H 71.5 Z"
         style="fill:#ffffff;fill-opacity:1;fill-rule:nonzero;stroke:none"
         id="path36" />
    </g>
    <g
       id="g38"
       transform="matrix(0.5,0,0,-0.5,-3.9925268,230.12501)">
      <path
         d="M 83.480339,409.5 V 34.500011"
         style="fill:none;stroke:#262626;stroke-width:0.5;stroke-linecap:butt;stroke-linejoin:round;stroke-miterlimit:10;stroke-dasharray:none;stroke-opacity:0.14902"
         id="path40" />
    </g>
    <g
       id="g42"
       transform="matrix(0.5,0,0,-0.5,-3.9925268,230.12501)">
      <path
         d="M 140.98596,409.5 V 34.500011"
         style="fill:none;stroke:#262626;stroke-width:0.5;stroke-linecap:butt;stroke-linejoin:round;stroke-miterlimit:10;stroke-dasharray:none;stroke-opacity:0.14902"
         id="path44" />
    </g>
    <g
       id="g46"
       transform="matrix(0.5,0,0,-0.5,-3.9925268,230.12501)">
      <path
         d="M 198.49158,409.5 V 34.500011"
         style="fill:none;stroke:#262626;stroke-width:0.5;stroke-linecap:butt;stroke-linejoin:round;stroke-miterlimit:10;stroke-dasharray:none;stroke-opacity:0.14902"
         id="path48" />
    </g>
    <g
       id="g50"
       transform="matrix(0.5,0,0,-0.5,-3.9925268,230.12501)">
      <path
         d="M 255.99719,409.5 V 34.500011"
         style="fill:none;stroke:#262626;stroke-width:0.5;stroke-linecap:butt;stroke-linejoin:round;stroke-miterlimit:10;stroke-dasharray:none;stroke-opacity:0.14902"
         id="path52" />
    </g>
    <g
       id="g54"
       transform="matrix(0.5,0,0,-0.5,-3.9925268,230.12501)">
      <path
         d="M 313.50281,409.5 V 34.500011"
         style="fill:none;stroke:#262626;stroke-width:0.5;stroke-linecap:butt;stroke-linejoin:round;stroke-miterlimit:10;stroke-dasharray:none;stroke-opacity:0.14902"
         id="path56" />
    </g>
    <g
       id="g58"
       transform="matrix(0.5,0,0,-0.5,-3.9925268,230.12501)">
      <path
         d="M 371.00842,409.5 V 34.500011"
         style="fill:none;stroke:#262626;stroke-width:0.5;stroke-linecap:butt;stroke-linejoin:round;stroke-miterlimit:10;stroke-dasharray:none;stroke-opacity:0.14902"
         id="path60" />
    </g>
    <g
       id="g62"
       transform="matrix(0.5,0,0,-0.5,-3.9925268,230.12501)">
      <path
         d="M 428.51404,409.5 V 34.500011"
         style="fill:none;stroke:#262626;stroke-width:0.5;stroke-linecap:butt;stroke-linejoin:round;stroke-miterlimit:10;stroke-dasharray:none;stroke-opacity:0.14902"
         id="path64" />
    </g>
    <g
       id="g66"
       transform="matrix(0.5,0,0,-0.5,-3.9925268,230.12501)">
      <path
         d="M 486.01965,409.5 V 34.500011"
         style="fill:none;stroke:#262626;stroke-width:0.5;stroke-linecap:butt;stroke-linejoin:round;stroke-miterlimit:10;stroke-dasharray:none;stroke-opacity:0.14902"
         id="path68" />
    </g>
    <g
       id="g70"
       transform="matrix(0.5,0,0,-0.5,-3.9925268,230.12501)">
      <path
         d="M 498,409.5 H 71.5"
         style="fill:none;stroke:#262626;stroke-width:0.5;stroke-linecap:butt;stroke-linejoin:round;stroke-miterlimit:10;stroke-dasharray:none;stroke-opacity:0.14902"
         id="path72" />
    </g>
    <g
       id="g74"
       transform="matrix(0.5,0,0,-0.5,-3.9925268,230.12501)">
      <path
         d="M 498,357.41666 H 71.5"
         style="fill:none;stroke:#262626;stroke-width:0.5;stroke-linecap:butt;stroke-linejoin:round;stroke-miterlimit:10;stroke-dasharray:none;stroke-opacity:0.14902"
         id="path76" />
    </g>
    <g
       id="g78"
       transform="matrix(0.5,0,0,-0.5,-3.9925268,230.12501)">
      <path
         d="M 498,305.33334 H 71.5"
         style="fill:none;stroke:#262626;stroke-width:0.5;stroke-linecap:butt;stroke-linejoin:round;stroke-miterlimit:10;stroke-dasharray:none;stroke-opacity:0.14902"
         id="path80" />
    </g>
    <g
       id="g82"
       transform="matrix(0.5,0,0,-0.5,-3.9925268,230.12501)">
      <path
         d="M 498,253.25 H 71.5"
         style="fill:none;stroke:#262626;stroke-width:0.5;stroke-linecap:butt;stroke-linejoin:round;stroke-miterlimit:10;stroke-dasharray:none;stroke-opacity:0.14902"
         id="path84" />
    </g>
    <g
       id="g86"
       transform="matrix(0.5,0,0,-0.5,-3.9925268,230.12501)">
      <path
         d="M 498,201.16667 H 71.5"
         style="fill:none;stroke:#262626;stroke-width:0.5;stroke-linecap:butt;stroke-linejoin:round;stroke-miterlimit:10;stroke-dasharray:none;stroke-opacity:0.14902"
         id="path88" />
    </g>
    <g
       id="g90"
       transform="matrix(0.5,0,0,-0.5,-3.9925268,230.12501)">
      <path
         d="M 498,149.08333 H 71.5"
         style="fill:none;stroke:#262626;stroke-width:0.5;stroke-linecap:butt;stroke-linejoin:round;stroke-miterlimit:10;stroke-dasharray:none;stroke-opacity:0.14902"
         id="path92" />
    </g>
    <g
       id="g94"
       transform="matrix(0.5,0,0,-0.5,-3.9925268,230.12501)">
      <path
         d="M 498,97 H 71.5"
         style="fill:none;stroke:#262626;stroke-width:0.5;stroke-linecap:butt;stroke-linejoin:round;stroke-miterlimit:10;stroke-dasharray:none;stroke-opacity:0.14902"
         id="path96" />
    </g>
    <g
       id="g98"
       transform="matrix(0.5,0,0,-0.5,-3.9925268,230.12501)">
      <path
         d="M 498,44.916668 H 71.5"
         style="fill:none;stroke:#262626;stroke-width:0.5;stroke-linecap:butt;stroke-linejoin:round;stroke-miterlimit:10;stroke-dasharray:none;stroke-opacity:0.14902"
         id="path100" />
    </g>
    <g
       id="g102"
       transform="matrix(0.5,0,0,-0.5,-3.9925268,230.12501)">
      <path
         d="M 71.5,409.5 H 498"
         style="fill:none;stroke:#262626;stroke-width:0.5;stroke-linecap:square;stroke-linejoin:round;stroke-miterlimit:10;stroke-dasharray:none;stroke-opacity:1"
         id="path104" />
    </g>
    <g
       id="g106"
       transform="matrix(0.5,0,0,-0.5,-3.9925268,230.12501)">
      <path
         d="m 83.480339,409.5 v -4.26501"
         style="fill:none;stroke:#262626;stroke-width:0.5;stroke-linecap:square;stroke-linejoin:round;stroke-miterlimit:10;stroke-dasharray:none;stroke-opacity:1"
         id="path108" />
    </g>
    <g
       id="g110"
       transform="matrix(0.5,0,0,-0.5,-3.9925268,230.12501)">
      <path
         d="m 140.98596,409.5 v -4.26501"
         style="fill:none;stroke:#262626;stroke-width:0.5;stroke-linecap:square;stroke-linejoin:round;stroke-miterlimit:10;stroke-dasharray:none;stroke-opacity:1"
         id="path112" />
    </g>
    <g
       id="g114"
       transform="matrix(0.5,0,0,-0.5,-3.9925268,230.12501)">
      <path
         d="m 198.49158,409.5 v -4.26501"
         style="fill:none;stroke:#262626;stroke-width:0.5;stroke-linecap:square;stroke-linejoin:round;stroke-miterlimit:10;stroke-dasharray:none;stroke-opacity:1"
         id="path116" />
    </g>
    <g
       id="g118"
       transform="matrix(0.5,0,0,-0.5,-3.9925268,230.12501)">
      <path
         d="m 255.99719,409.5 v -4.26501"
         style="fill:none;stroke:#262626;stroke-width:0.5;stroke-linecap:square;stroke-linejoin:round;stroke-miterlimit:10;stroke-dasharray:none;stroke-opacity:1"
         id="path120" />
    </g>
    <g
       id="g122"
       transform="matrix(0.5,0,0,-0.5,-3.9925268,230.12501)">
      <path
         d="m 313.50281,409.5 v -4.26501"
         style="fill:none;stroke:#262626;stroke-width:0.5;stroke-linecap:square;stroke-linejoin:round;stroke-miterlimit:10;stroke-dasharray:none;stroke-opacity:1"
         id="path124" />
    </g>
    <g
       id="g126"
       transform="matrix(0.5,0,0,-0.5,-3.9925268,230.12501)">
      <path
         d="m 371.00842,409.5 v -4.26501"
         style="fill:none;stroke:#262626;stroke-width:0.5;stroke-linecap:square;stroke-linejoin:round;stroke-miterlimit:10;stroke-dasharray:none;stroke-opacity:1"
         id="path128" />
    </g>
    <g
       id="g130"
       transform="matrix(0.5,0,0,-0.5,-3.9925268,230.12501)">
      <path
         d="m 428.51404,409.5 v -4.26501"
         style="fill:none;stroke:#262626;stroke-width:0.5;stroke-linecap:square;stroke-linejoin:round;stroke-miterlimit:10;stroke-dasharray:none;stroke-opacity:1"
         id="path132" />
    </g>
    <g
       id="g134"
       transform="matrix(0.5,0,0,-0.5,-3.9925268,230.12501)">
      <path
         d="m 486.01965,409.5 v -4.26501"
         style="fill:none;stroke:#262626;stroke-width:0.5;stroke-linecap:square;stroke-linejoin:round;stroke-miterlimit:10;stroke-dasharray:none;stroke-opacity:1"
         id="path136" />
    </g>
    <g
       id="g138"
       transform="matrix(0.125,0,0,-0.125,0,213)">
      <g
         id="g140"
         transform="matrix(4,0,0,4,301.98114,1523.4)">
        <text
           xml:space="preserve"
           transform="translate(-5.5,17)"
           style="font-variant:normal;font-weight:normal;font-size:18px;font-family:Arial;-inkscape-font-specification:ArialMT;writing-mode:lr-tb;fill:#262626;fill-opacity:1;fill-rule:nonzero;stroke:none"
           id="text144"><tspan
             x="0"
             y="0"
             id="tspan142">1</tspan></text>
      </g>
    </g>
    <g
       id="g146"
       transform="matrix(0.125,0,0,-0.125,0,213)">
      <g
         id="g148"
         transform="matrix(4,0,0,4,532.00363,1523.4)">
        <text
           xml:space="preserve"
           transform="translate(-5.5,17)"
           style="font-variant:normal;font-weight:normal;font-size:18px;font-family:Arial;-inkscape-font-specification:ArialMT;writing-mode:lr-tb;fill:#262626;fill-opacity:1;fill-rule:nonzero;stroke:none"
           id="text152"><tspan
             x="0"
             y="0"
             id="tspan150">3</tspan></text>
      </g>
    </g>
    <g
       id="g154"
       transform="matrix(0.125,0,0,-0.125,0,213)">
      <g
         id="g156"
         transform="matrix(4,0,0,4,762.02609,1523.4)">
        <text
           xml:space="preserve"
           transform="translate(-5.5,17)"
           style="font-variant:normal;font-weight:normal;font-size:18px;font-family:Arial;-inkscape-font-specification:ArialMT;writing-mode:lr-tb;fill:#262626;fill-opacity:1;fill-rule:nonzero;stroke:none"
           id="text160"><tspan
             x="0"
             y="0"
             id="tspan158">5</tspan></text>
      </g>
    </g>
    <g
       id="g162"
       transform="matrix(0.125,0,0,-0.125,0,213)">
      <g
         id="g164"
         transform="matrix(4,0,0,4,992.04856,1523.4)">
        <text
           xml:space="preserve"
           transform="translate(-5.5,17)"
           style="font-variant:normal;font-weight:normal;font-size:18px;font-family:Arial;-inkscape-font-specification:ArialMT;writing-mode:lr-tb;fill:#262626;fill-opacity:1;fill-rule:nonzero;stroke:none"
           id="text168"><tspan
             x="0"
             y="0"
             id="tspan166">7</tspan></text>
      </g>
    </g>
    <g
       id="g170"
       transform="matrix(0.125,0,0,-0.125,0,213)">
      <g
         id="g172"
         transform="matrix(4,0,0,4,1222.071,1523.4)">
        <text
           xml:space="preserve"
           transform="translate(-5.5,17)"
           style="font-variant:normal;font-weight:normal;font-size:18px;font-family:Arial;-inkscape-font-specification:ArialMT;writing-mode:lr-tb;fill:#262626;fill-opacity:1;fill-rule:nonzero;stroke:none"
           id="text176"><tspan
             x="0"
             y="0"
             id="tspan174">9</tspan></text>
      </g>
    </g>
    <g
       id="g178"
       transform="matrix(0.125,0,0,-0.125,0,213)">
      <g
         id="g180"
         transform="matrix(4,0,0,4,1452.0935,1523.4)">
        <text
           xml:space="preserve"
           transform="translate(-10.5,17)"
           style="font-variant:normal;font-weight:normal;font-size:18px;font-family:Arial;-inkscape-font-specification:ArialMT;writing-mode:lr-tb;fill:#262626;fill-opacity:1;fill-rule:nonzero;stroke:none"
           id="text184"><tspan
             x="0 10.008"
             y="0"
             sodipodi:role="line"
             id="tspan182">11</tspan></text>
      </g>
    </g>
    <g
       id="g186"
       transform="matrix(0.125,0,0,-0.125,0,213)">
      <g
         id="g188"
         transform="matrix(4,0,0,4,1682.1159,1523.4)">
        <text
           xml:space="preserve"
           transform="translate(-10.5,17)"
           style="font-variant:normal;font-weight:normal;font-size:18px;font-family:Arial;-inkscape-font-specification:ArialMT;writing-mode:lr-tb;fill:#262626;fill-opacity:1;fill-rule:nonzero;stroke:none"
           id="text192"><tspan
             x="0 10.008"
             y="0"
             sodipodi:role="line"
             id="tspan190">13</tspan></text>
      </g>
    </g>
    <g
       id="g194"
       transform="matrix(0.125,0,0,-0.125,0,213)">
      <g
         id="g196"
         transform="matrix(4,0,0,4,1912.1384,1523.4)">
        <text
           xml:space="preserve"
           transform="translate(-10.5,17)"
           style="font-variant:normal;font-weight:normal;font-size:18px;font-family:Arial;-inkscape-font-specification:ArialMT;writing-mode:lr-tb;fill:#262626;fill-opacity:1;fill-rule:nonzero;stroke:none"
           id="text200"><tspan
             x="0 10.008"
             y="0"
             sodipodi:role="line"
             id="tspan198">15</tspan></text>
      </g>
    </g>
    <g
       id="g202"
       transform="matrix(0.125,0,0,-0.125,0,213)">
      <g
         id="g204"
         transform="matrix(4,0,0,4,1107.0606,1609.4)">
        <text
           xml:space="preserve"
           transform="translate(-56.5,18)"
           style="font-variant:normal;font-weight:normal;font-size:19.8px;font-family:Arial;-inkscape-font-specification:ArialMT;writing-mode:lr-tb;fill:#262626;fill-opacity:1;fill-rule:nonzero;stroke:none"
           id="text208"><tspan
             x="0 12.078 16.4736 32.966999 43.9758 49.4604 56.053799 67.062599 78.071404 89.0802 95.673599 105.5736"
             y="0"
             sodipodi:role="line"
             id="tspan206">Time (hours)</tspan></text>
      </g>
    </g>
    <g
       id="g210"
       transform="matrix(0.5,0,0,-0.5,-3.9925268,230.12501)">
      <path
         d="M 71.5,409.5 V 34.500011"
         style="fill:none;stroke:#262626;stroke-width:0.5;stroke-linecap:square;stroke-linejoin:round;stroke-miterlimit:10;stroke-dasharray:none;stroke-opacity:1"
         id="path212" />
    </g>
    <g
       id="g214"
       transform="matrix(0.5,0,0,-0.5,-3.9925268,230.12501)">
      <path
         d="m 71.5,409.5 h 4.264999"
         style="fill:none;stroke:#262626;stroke-width:0.5;stroke-linecap:square;stroke-linejoin:round;stroke-miterlimit:10;stroke-dasharray:none;stroke-opacity:1"
         id="path216" />
    </g>
    <g
       id="g218"
       transform="matrix(0.5,0,0,-0.5,-3.9925268,230.12501)">
      <path
         d="m 71.5,357.41666 h 4.264999"
         style="fill:none;stroke:#262626;stroke-width:0.5;stroke-linecap:square;stroke-linejoin:round;stroke-miterlimit:10;stroke-dasharray:none;stroke-opacity:1"
         id="path220" />
    </g>
    <g
       id="g222"
       transform="matrix(0.5,0,0,-0.5,-3.9925268,230.12501)">
      <path
         d="m 71.5,305.33334 h 4.264999"
         style="fill:none;stroke:#262626;stroke-width:0.5;stroke-linecap:square;stroke-linejoin:round;stroke-miterlimit:10;stroke-dasharray:none;stroke-opacity:1"
         id="path224" />
    </g>
    <g
       id="g226"
       transform="matrix(0.5,0,0,-0.5,-3.9925268,230.12501)">
      <path
         d="m 71.5,253.25 h 4.264999"
         style="fill:none;stroke:#262626;stroke-width:0.5;stroke-linecap:square;stroke-linejoin:round;stroke-miterlimit:10;stroke-dasharray:none;stroke-opacity:1"
         id="path228" />
    </g>
    <g
       id="g230"
       transform="matrix(0.5,0,0,-0.5,-3.9925268,230.12501)">
      <path
         d="m 71.5,201.16667 h 4.264999"
         style="fill:none;stroke:#262626;stroke-width:0.5;stroke-linecap:square;stroke-linejoin:round;stroke-miterlimit:10;stroke-dasharray:none;stroke-opacity:1"
         id="path232" />
    </g>
    <g
       id="g234"
       transform="matrix(0.5,0,0,-0.5,-3.9925268,230.12501)">
      <path
         d="m 71.5,149.08333 h 4.264999"
         style="fill:none;stroke:#262626;stroke-width:0.5;stroke-linecap:square;stroke-linejoin:round;stroke-miterlimit:10;stroke-dasharray:none;stroke-opacity:1"
         id="path236" />
    </g>
    <g
       id="g238"
       transform="matrix(0.5,0,0,-0.5,-3.9925268,230.12501)">
      <path
         d="m 71.5,97 h 4.264999"
         style="fill:none;stroke:#262626;stroke-width:0.5;stroke-linecap:square;stroke-linejoin:round;stroke-miterlimit:10;stroke-dasharray:none;stroke-opacity:1"
         id="path240" />
    </g>
    <g
       id="g242"
       transform="matrix(0.5,0,0,-0.5,-3.9925268,230.12501)">
      <path
         d="m 71.5,44.916668 h 4.264999"
         style="fill:none;stroke:#262626;stroke-width:0.5;stroke-linecap:square;stroke-linejoin:round;stroke-miterlimit:10;stroke-dasharray:none;stroke-opacity:1"
         id="path244" />
    </g>
    <g
       id="g246"
       transform="matrix(0.125,0,0,-0.125,0,213)">
      <g
         id="g248"
         transform="matrix(4,0,0,4,231.65979,1501)">
        <text
           xml:space="preserve"
           transform="translate(-11,6.5)"
           style="font-variant:normal;font-weight:normal;font-size:18px;font-family:Arial;-inkscape-font-specification:ArialMT;writing-mode:lr-tb;fill:#262626;fill-opacity:1;fill-rule:nonzero;stroke:none"
           id="text252"><tspan
             x="0"
             y="0"
             id="tspan250">0</tspan></text>
      </g>
    </g>
    <g
       id="g254"
       transform="matrix(0.125,0,0,-0.125,0,213)">
      <g
         id="g256"
         transform="matrix(4,0,0,4,231.65979,1292.6666)">
        <text
           xml:space="preserve"
           transform="translate(-36,6.5)"
           style="font-variant:normal;font-weight:normal;font-size:18px;font-family:Arial;-inkscape-font-specification:ArialMT;writing-mode:lr-tb;fill:#262626;fill-opacity:1;fill-rule:nonzero;stroke:none"
           id="text260"><tspan
             x="0 10.008 14.994 25.002001"
             y="0"
             sodipodi:role="line"
             id="tspan258">0.25</tspan></text>
      </g>
    </g>
    <g
       id="g262"
       transform="matrix(0.125,0,0,-0.125,0,213)">
      <g
         id="g264"
         transform="matrix(4,0,0,4,231.65979,1084.3333)">
        <text
           xml:space="preserve"
           transform="translate(-26,6.5)"
           style="font-variant:normal;font-weight:normal;font-size:18px;font-family:Arial;-inkscape-font-specification:ArialMT;writing-mode:lr-tb;fill:#262626;fill-opacity:1;fill-rule:nonzero;stroke:none"
           id="text268"><tspan
             x="0 10.008 14.994"
             y="0"
             sodipodi:role="line"
             id="tspan266">0.5</tspan></text>
      </g>
    </g>
    <g
       id="g270"
       transform="matrix(0.125,0,0,-0.125,0,213)">
      <g
         id="g272"
         transform="matrix(4,0,0,4,231.65979,875.99995)">
        <text
           xml:space="preserve"
           transform="translate(-36,6.5)"
           style="font-variant:normal;font-weight:normal;font-size:18px;font-family:Arial;-inkscape-font-specification:ArialMT;writing-mode:lr-tb;fill:#262626;fill-opacity:1;fill-rule:nonzero;stroke:none"
           id="text276"><tspan
             x="0 10.008 14.994 25.002001"
             y="0"
             sodipodi:role="line"
             id="tspan274">0.75</tspan></text>
      </g>
    </g>
    <g
       id="g278"
       transform="matrix(0.125,0,0,-0.125,0,213)">
      <g
         id="g280"
         transform="matrix(4,0,0,4,231.65979,667.66664)">
        <text
           xml:space="preserve"
           transform="translate(-11,6.5)"
           style="font-variant:normal;font-weight:normal;font-size:18px;font-family:Arial;-inkscape-font-specification:ArialMT;writing-mode:lr-tb;fill:#262626;fill-opacity:1;fill-rule:nonzero;stroke:none"
           id="text284"><tspan
             x="0"
             y="0"
             id="tspan282">1</tspan></text>
      </g>
    </g>
    <g
       id="g286"
       transform="matrix(0.125,0,0,-0.125,0,213)">
      <g
         id="g288"
         transform="matrix(4,0,0,4,231.65979,459.33327)">
        <text
           xml:space="preserve"
           transform="translate(-36,6.5)"
           style="font-variant:normal;font-weight:normal;font-size:18px;font-family:Arial;-inkscape-font-specification:ArialMT;writing-mode:lr-tb;fill:#262626;fill-opacity:1;fill-rule:nonzero;stroke:none"
           id="text292"><tspan
             x="0 10.008 14.994 25.002001"
             y="0"
             sodipodi:role="line"
             id="tspan290">1.25</tspan></text>
      </g>
    </g>
    <g
       id="g294"
       transform="matrix(0.125,0,0,-0.125,0,213)">
      <g
         id="g296"
         transform="matrix(4,0,0,4,231.65979,250.99995)">
        <text
           xml:space="preserve"
           transform="translate(-26,6.5)"
           style="font-variant:normal;font-weight:normal;font-size:18px;font-family:Arial;-inkscape-font-specification:ArialMT;writing-mode:lr-tb;fill:#262626;fill-opacity:1;fill-rule:nonzero;stroke:none"
           id="text300"><tspan
             x="0 10.008 14.994"
             y="0"
             sodipodi:role="line"
             id="tspan298">1.5</tspan></text>
      </g>
    </g>
    <g
       id="g302"
       transform="matrix(0.125,0,0,-0.125,0,213)">
      <g
         id="g304"
         transform="matrix(4,0,0,4,231.65979,42.666626)">
        <text
           xml:space="preserve"
           transform="translate(-36,6.5)"
           style="font-variant:normal;font-weight:normal;font-size:18px;font-family:Arial;-inkscape-font-specification:ArialMT;writing-mode:lr-tb;fill:#262626;fill-opacity:1;fill-rule:nonzero;stroke:none"
           id="text308"><tspan
             x="0 10.008 14.994 25.002001"
             y="0"
             sodipodi:role="line"
             id="tspan306">1.75</tspan></text>
      </g>
    </g>
    <g
       id="g310"
       transform="matrix(0.125,0,0,-0.125,0,213)">
      <g
         id="g312"
         transform="matrix(-1.7e-7,-4,4,-1.7e-7,77.659784,750.99928)">
        <text
           xml:space="preserve"
           transform="translate(-113,-5)"
           style="font-variant:normal;font-weight:normal;font-size:19.8px;font-family:Arial;-inkscape-font-specification:ArialMT;writing-mode:lr-tb;fill:#262626;fill-opacity:1;fill-rule:nonzero;stroke:none"
           id="text316"><tspan
             x="0 16.493401 27.502199 38.511002 49.519798 55.004398 66.013199 70.408798 81.417603 92.426399 103.4352 114.444 119.9286 126.522 137.53081 148.5396 152.9352 163.944 173.84399 179.3286 185.922 202.41541 218.9088"
             y="0"
             sodipodi:role="line"
             id="tspan314">Mean plaque radius (mm)</tspan></text>
      </g>
    </g>
    <g
       id="g318"
       transform="matrix(0.5,0,0,-0.5,-3.9925268,230.12501)">
      <path
         d="m 176.92697,396.85986 2.39607,-4.35519 2.39606,-7.15167 2.39607,-5.039 2.39608,-5.9661 2.39605,-3.08069 2.39608,-2.72632 2.39607,-8.96011 2.39605,1.22818 2.39608,-2.72485 2.39607,-2.94861 2.39606,-4.86075 2.39607,-2.75708 2.39607,-3.26523 2.39606,-5.88116 2.39607,-3.21186 2.39607,-2.70037 2.39606,-1.08524 2.39607,-2.07901 2.39608,-3.15945 2.39605,-1.6713 2.39607,-0.56509 2.39608,-0.63587 2.39605,-1.38806 2.39608,-2.33771 2.39607,-2.05142 2.39606,-1.46088 2.39607,-1.69271 2.39607,-2.10785 2.39606,-2.03611 2.39607,-1.93978 2.39607,-1.89524 2.39606,-1.61169 2.39607,-1.78476 2.39606,-1.67117 2.39606,-2.24118 2.39608,-2.21317 2.39606,-2.03671 2.39606,-1.66965 2.39609,-1.99365 2.39605,-2.56833 2.39609,-2.3082 2.39606,-2.02566 2.39606,-2.2023 2.39608,-2.54926 2.39606,-2.76407 2.39606,-2.44748 2.39608,-2.28494 2.39606,-2.53366 2.39606,-2.32559 2.39609,-2.71073 2.39605,-2.47104 2.39606,-2.45318 2.39609,-2.42322 2.39606,-1.95416 2.39605,-2.33374 2.39609,-2.52295 2.39606,-2.14171 2.39605,-2.46655 2.39609,-2.26808 2.39606,-2.31409 2.39606,-2.29872 2.39608,-1.82068 2.39606,-2.33211 2.39606,-2.0925 2.39609,-1.63923 2.39605,-1.62899 2.39606,-1.92434 2.39609,-2.34501 2.39606,-2.68127 2.39605,-1.62677 2.39609,-1.94444 2.39606,-2.06998 2.39605,-1.56894 2.39609,-1.78155 2.39606,-1.70999 2.39606,-0.69161 2.39608,-1.19235 2.39606,-1.31067 2.39606,-1.20248 2.39609,-1.03406 2.39605,-1.04801 2.39606,-0.0299 2.39609,-1.12596 2.39605,-0.32147 2.39606,-1.6154 2.39609,-0.88234 2.39606,-0.9737 2.39605,-1.25471 2.39609,-2.25952 2.39606,-0.94176 2.39606,-2.06838 2.39608,-0.0389 2.39606,-1.37346 2.39606,-1.9343 2.39609,-0.75064 2.39605,-0.95715 2.39606,-1.25853 2.39609,0.50755 2.39605,-0.21392 2.39606,-0.27034 2.39609,-0.14896 2.39606,-0.58531 2.39605,0.37312 2.39609,0.44023 2.39606,-1.50566 2.39606,-1.55579 2.39608,-0.66061 2.39606,-0.0397 2.39606,0.70602 2.39608,-0.33803 2.39606,0.14754 2.39606,-0.0441 2.39609,1.82587 2.39605,-0.67714 2.39606,-0.42975 2.39609,-0.51201 2.39606,-1.18042 2.39605,-0.74945 2.39609,0.90904 2.39606,0.39014 2.39605,0.86257 2.39609,0.49465 2.39606,-0.18785 2.39606,2.07172 2.39608,1.53316 2.39606,1.17561 2.39606,-1.07616 2.39609,0.65499 2.39605,0.98224 2.39606,2.10122 2.39609,-0.10768 2.39606,-0.79544 2.39605,-0.86015 L 498,192.70487 V 93.938792 l -2.39609,0.0012 -2.39605,0.750023 -2.39606,0.601784 -2.39609,-0.08032 -2.39606,0.358253 -2.39605,0.356758 -2.39609,0.587899 -2.39606,1.661209 -2.39606,-0.04058 -2.39608,-0.677231 -2.39606,1.592506 -2.39606,0.687142 -2.39609,0.06502 -2.39605,0.263205 -2.39606,-1.044394 -2.39609,0.138755 -2.39605,-0.01565 -2.39606,0.398307 -2.39609,0.525962 -2.39606,0.11209 -2.39605,0.0425 -2.39609,1.80043 -2.39606,1.09151 -2.39606,2.23433 -2.39608,0.47177 -2.39606,0.46688 -2.39606,0.73764 -2.39608,1.59817 -2.39606,0.0997 -2.39606,0.88605 -2.39609,0.25362 -2.39605,0.0527 -2.39606,0.79892 -2.39609,1.07197 -2.39606,0.52693 -2.39605,1.22611 -2.39609,0.71201 -2.39606,1.11413 -2.39605,1.62835 -2.39609,2.21809 -2.39606,1.64832 -2.39606,1.3198 -2.39608,2.21674 -2.39606,2.08594 -2.39606,1.50601 -2.39609,1.77704 -2.39605,1.59035 -2.39606,1.60336 -2.39609,1.79211 -2.39606,1.4189 -2.39605,1.48964 -2.39609,1.73015 -2.39606,1.37147 -2.39605,1.24311 -2.39609,1.5186 -2.39606,1.60679 -2.39606,1.40056 -2.39608,1.8846 -2.39606,1.64218 -2.39606,1.84221 -2.39609,1.87106 -2.39605,2.59205 -2.39606,2.04585 -2.39609,2.39863 -2.39605,2.32607 -2.39606,3.17241 -2.39609,2.34018 -2.39606,2.23903 -2.39605,1.94491 -2.39609,2.47122 -2.39606,2.37545 -2.39606,2.46701 -2.39608,1.89924 -2.39606,2.89992 -2.39606,2.80609 -2.39609,2.83631 -2.39605,2.96106 -2.39606,2.92179 -2.39609,2.65581 -2.39605,3.12369 -2.39606,2.81374 -2.39609,3.26432 -2.39606,2.51006 -2.39605,2.48196 -2.39609,2.49034 -2.39606,3.07253 -2.39606,2.45261 -2.39608,2.81564 -2.39606,2.52713 -2.39606,3.39059 -2.39608,3.11853 -2.39606,2.95642 -2.39606,2.46123 -2.39609,2.94728 -2.39605,2.84055 -2.39609,2.76318 -2.39606,1.88234 -2.39606,2.40544 -2.39608,2.67473 -2.39606,2.69473 -2.39606,1.82468 -2.39607,1.51578 -2.39606,2.086 -2.39607,2.45218 -2.39607,2.23358 -2.39606,2.42154 -2.39607,2.48639 -2.39607,2.44955 -2.39606,2.72675 -2.39607,2.00058 -2.39608,2.32397 -2.39605,1.83286 -2.39608,1.19143 -2.39607,0.91745 -2.39605,1.59702 -2.39608,1.43347 -2.39607,1.79666 -2.39606,1.18179 -2.39607,2.57434 -2.39607,2.9823 -2.39606,1.12238 -2.39607,3.16757 -2.39607,2.84125 -2.39606,2.2413 -2.39607,4.01486 -2.39608,1.49994 -2.39605,2.55719 -2.39607,0.72766 -2.39608,3.57697 -2.39605,3.39578 -2.39608,0.25424 -2.39607,3.06168 -2.39606,4.59299 -2.39607,4.58264 -2.39607,2.4187 -2.39606,0.60785 -2.39607,2.81528 -2.39607,0.6246 -2.39608,3.82397 -2.39605,0.21485 -2.39607,3.4873 -2.39608,3.12717 -2.39605,7.9306 -2.39608,4.90201 -2.39607,11.38306 -2.39606,2.06445 -2.39607,6.90115 -2.39607,9.10129 -2.39606,15.6214 0.0115,0.0447 h 2.38451 1.42216 0.97391 1.61791 0.77816 1.75429 0.64177 1.74446 1.94309 0.66613 0.43847 2.18672 0.20933 2.22954 0.16654 2.37896 0.0171 0.2832 l 2.11285,-3.27429 2.39608,-2.98227 2.39607,-2.92957 2.39607,-0.38522 2.39606,-2.33881 2.39607,-0.77469 z"
         style="fill:#0072bd;fill-opacity:0.2;fill-rule:nonzero;stroke:none"
         id="path320" />
    </g>
    <g
       id="g322"
       transform="matrix(0.5,0,0,-0.5,-3.9925268,230.12501)">
      <path
         d="m 71.5,409.5 h 2.396065 2.396072 2.396065 2.396065 2.396072 2.396065 2.396065 2.396072 2.396065 2.396064 2.396073 2.396067 2.39606 2.39607 2.39607 2.39606 2.39608 2.39606 2.39607 2.39607 2.39606 2.39608 2.39606 2.39607 2.39607 2.39607 2.39606 2.39607 2.39607 l 2.39606,-15.6214 2.39607,-9.10129 2.39607,-6.90115 2.39606,-2.06445 2.39607,-11.38306 2.39608,-4.90201 2.39605,-7.9306 2.39608,-3.12717 2.39607,-3.4873 2.39605,-0.21485 2.39608,-3.82397 2.39607,-0.6246 2.39607,-2.81528 2.39606,-0.60785 2.39607,-2.4187 2.39607,-4.58264 2.39606,-4.59299 2.39607,-3.06168 2.39608,-0.25424 2.39605,-3.39578 2.39608,-3.57697 2.39607,-0.72766 2.39605,-2.55719 2.39608,-1.49994 2.39607,-4.01486 2.39606,-2.2413 2.39607,-2.84125 2.39607,-3.16757 2.39606,-1.12238 2.39607,-2.9823 2.39607,-2.57434 2.39606,-1.18179 2.39607,-1.79666 2.39608,-1.43347 2.39605,-1.59702 2.39607,-0.91745 2.39608,-1.19143 2.39605,-1.83286 2.39608,-2.32397 2.39607,-2.00058 2.39606,-2.72675 2.39607,-2.44955 2.39607,-2.48639 2.39606,-2.42154 2.39607,-2.23358 2.39607,-2.45218 2.39606,-2.086 2.39607,-1.51578 2.39606,-1.82468 2.39606,-2.69473 2.39608,-2.67473 2.39606,-2.40544 2.39606,-1.88234 2.39609,-2.76318 2.39605,-2.84055 2.39609,-2.94728 2.39606,-2.46123 2.39606,-2.95642 2.39608,-3.11853 2.39606,-3.39059 2.39606,-2.52713 2.39608,-2.81564 2.39606,-2.45261 2.39606,-3.07253 2.39609,-2.49034 2.39605,-2.48196 2.39606,-2.51006 2.39609,-3.26432 2.39606,-2.81374 2.39605,-3.12369 2.39609,-2.65581 2.39606,-2.92179 2.39605,-2.96106 2.39609,-2.83631 2.39606,-2.80609 2.39606,-2.89992 2.39608,-1.89924 2.39606,-2.46701 2.39606,-2.37545 2.39609,-2.47122 2.39605,-1.94491 2.39606,-2.23903 2.39609,-2.34018 2.39606,-3.17241 2.39605,-2.32607 2.39609,-2.39863 2.39606,-2.04585 2.39605,-2.59205 2.39609,-1.87106 2.39606,-1.84221 2.39606,-1.64218 2.39608,-1.8846 2.39606,-1.40056 2.39606,-1.60679 2.39609,-1.5186 2.39605,-1.24311 2.39606,-1.37147 2.39609,-1.73015 2.39605,-1.48964 2.39606,-1.4189 2.39609,-1.79211 2.39606,-1.60336 2.39605,-1.59035 2.39609,-1.77704 2.39606,-1.50601 2.39606,-2.08594 2.39608,-2.21674 2.39606,-1.3198 2.39606,-1.64832 2.39609,-2.21809 2.39605,-1.62835 2.39606,-1.11413 2.39609,-0.71201 2.39605,-1.22611 2.39606,-0.52693 2.39609,-1.07197 2.39606,-0.79892 2.39605,-0.0527 2.39609,-0.25362 2.39606,-0.88605 2.39606,-0.0997 2.39608,-1.59817 2.39606,-0.73764 2.39606,-0.46688 2.39608,-0.47177 2.39606,-2.23433 2.39606,-1.09151 2.39609,-1.80043 2.39605,-0.0425 2.39606,-0.11209 2.39609,-0.525961 2.39606,-0.398307 2.39605,0.01565 2.39609,-0.138755 2.39606,1.044393 2.39605,-0.263204 2.39609,-0.06502 2.39606,-0.687142 2.39606,-1.592506 2.39608,0.677231 2.39606,0.04058 2.39606,-1.661209 2.39609,-0.587899 2.39605,-0.356758 2.39606,-0.358253 2.39609,0.08032 2.39606,-0.601784 2.39605,-0.750023 2.39609,-0.0012"
         style="fill:none;stroke:#0072bd;stroke-width:2;stroke-linecap:butt;stroke-linejoin:bevel;stroke-miterlimit:1;stroke-dasharray:8, 8;stroke-dashoffset:0;stroke-opacity:0.501961"
         id="path324" />
    </g>
    <g
       id="g326"
       transform="matrix(0.5,0,0,-0.5,-3.9925268,230.12501)">
      <path
         d="m 71.5,409.5 h 2.396065 2.396072 2.396065 2.396065 2.396072 2.396065 2.396065 2.396072 2.396065 2.396064 2.396073 2.396067 2.39606 2.39607 2.39607 2.39606 2.39608 2.39606 2.39607 2.39607 2.39606 2.39608 2.39606 2.39607 2.39607 2.39607 2.39606 2.39607 2.39607 l 0.0115,0.0447"
         style="fill:none;stroke:#0072bd;stroke-width:2;stroke-linecap:butt;stroke-linejoin:bevel;stroke-miterlimit:1;stroke-dasharray:8, 8;stroke-dashoffset:0;stroke-opacity:0.501961"
         id="path328" />
    </g>
    <g
       id="g330"
       transform="matrix(0.5,0,0,-0.5,-3.9925268,230.12501)">
      <path
         d="m 162.83377,409.54471 2.11285,-3.27429 2.39608,-2.98227 2.39607,-2.92957 2.39607,-0.38522 2.39606,-2.33881 2.39607,-0.77469 2.39607,-4.35519 2.39606,-7.15167 2.39607,-5.039 2.39608,-5.9661 2.39605,-3.08069 2.39608,-2.72632 2.39607,-8.96011 2.39605,1.22818 2.39608,-2.72485 2.39607,-2.94861 2.39606,-4.86075 2.39607,-2.75708 2.39607,-3.26523 2.39606,-5.88116 2.39607,-3.21186 2.39607,-2.70037 2.39606,-1.08524 2.39607,-2.07901 2.39608,-3.15945 2.39605,-1.6713 2.39607,-0.56509 2.39608,-0.63587 2.39605,-1.38806 2.39608,-2.33771 2.39607,-2.05142 2.39606,-1.46088 2.39607,-1.69271 2.39607,-2.10785 2.39606,-2.03611 2.39607,-1.93978 2.39607,-1.89524 2.39606,-1.61169 2.39607,-1.78476 2.39606,-1.67117 2.39606,-2.24118 2.39608,-2.21317 2.39606,-2.03671 2.39606,-1.66965 2.39609,-1.99365 2.39605,-2.56833 2.39609,-2.3082 2.39606,-2.02566 2.39606,-2.2023 2.39608,-2.54926 2.39606,-2.76407 2.39606,-2.44748 2.39608,-2.28494 2.39606,-2.53366 2.39606,-2.32559 2.39609,-2.71073 2.39605,-2.47104 2.39606,-2.45318 2.39609,-2.42322 2.39606,-1.95416 2.39605,-2.33374 2.39609,-2.52295 2.39606,-2.14171 2.39605,-2.46655 2.39609,-2.26808 2.39606,-2.31409 2.39606,-2.29872 2.39608,-1.82068 2.39606,-2.33211 2.39606,-2.0925 2.39609,-1.63923 2.39605,-1.62899 2.39606,-1.92434 2.39609,-2.34501 2.39606,-2.68127 2.39605,-1.62677 2.39609,-1.94444 2.39606,-2.06998 2.39605,-1.56894 2.39609,-1.78155 2.39606,-1.70999 2.39606,-0.69161 2.39608,-1.19235 2.39606,-1.31067 2.39606,-1.20248 2.39609,-1.03406 2.39605,-1.04801 2.39606,-0.0299 2.39609,-1.12596 2.39605,-0.32147 2.39606,-1.6154 2.39609,-0.88234 2.39606,-0.9737 2.39605,-1.25471 2.39609,-2.25952 2.39606,-0.94176 2.39606,-2.06838 2.39608,-0.0389 2.39606,-1.37346 2.39606,-1.9343 2.39609,-0.75064 2.39605,-0.95715 2.39606,-1.25853 2.39609,0.50755 2.39605,-0.21392 2.39606,-0.27034 2.39609,-0.14896 2.39606,-0.58531 2.39605,0.37312 2.39609,0.44023 2.39606,-1.50566 2.39606,-1.55579 2.39608,-0.66061 2.39606,-0.0397 2.39606,0.70602 2.39608,-0.33803 2.39606,0.14754 2.39606,-0.0441 2.39609,1.82587 2.39605,-0.67714 2.39606,-0.42975 2.39609,-0.51201 2.39606,-1.18042 2.39605,-0.74945 2.39609,0.90904 2.39606,0.39014 2.39605,0.86257 2.39609,0.49465 2.39606,-0.18785 2.39606,2.07172 2.39608,1.53316 2.39606,1.17561 2.39606,-1.07616 2.39609,0.65499 2.39605,0.98224 2.39606,2.10122 2.39609,-0.10768 2.39606,-0.79544 2.39605,-0.86015 2.39609,2.13508"
         style="fill:none;stroke:#0072bd;stroke-width:2;stroke-linecap:butt;stroke-linejoin:bevel;stroke-miterlimit:1;stroke-dasharray:8, 8;stroke-dashoffset:0;stroke-opacity:0.501961"
         id="path332" />
    </g>
    <g
       id="g334"
       transform="matrix(0.5,0,0,-0.5,-3.9925268,230.12501)">
      <path
         d="m 71.5,409.5 h 2.396065 2.396072 2.396065 2.396065 2.396072 2.396065 2.396065 2.396072 2.396065 2.396064 2.396073 2.396067 2.39606 2.39607 2.39607 2.39606 2.39608 2.39606 2.39607 2.39607 2.39606 2.39608 2.39606 2.39607 2.39607 2.39607 2.39606 2.39607 2.39607 l 2.39606,-13.42941 2.39607,-5.13349 2.39607,-3.36947 2.39606,-5.13568 2.39607,-4.57465 2.39608,-4.14923 2.39605,-3.2496 2.39608,-2.97608 2.39607,-2.77356 2.39605,-3.19714 2.39608,-2.59113 2.39607,-3.09616 2.39607,-2.52722 2.39606,-4.08286 2.39607,-3.77096 2.39607,-2.91122 2.39606,-3.36811 2.39607,-2.9574 2.39608,-3.14004 2.39605,-3.28384 2.39608,-2.32135 2.39607,-2.51096 2.39605,-2.56937 2.39608,-2.34466 2.39607,-2.40351 2.39606,-1.83386 2.39607,-1.63986 2.39607,-1.45328 2.39606,-0.94967 2.39607,-1.4104 2.39607,-1.71854 2.39606,-1.09485 2.39607,-1.39975 2.39608,-0.39557 2.39605,-1.13229 2.39607,-0.67606 2.39608,0.0107 2.39605,-0.22644 2.39608,-0.47128 2.39607,0.0477 2.39606,-0.74655 2.39607,-0.3638 2.39607,-0.74152 2.39606,-0.59302 2.39607,-0.064 2.39607,0.1203 2.39606,-0.23313 2.39607,0.93442 2.39606,0.85077 2.39606,0.87985 2.39608,0.31607 2.39606,0.335 2.39606,0.64068 2.39609,0.66376 2.39605,0.0125 2.39609,-0.19315 2.39606,-0.32601 2.39606,-0.20951 2.39608,-0.41592 2.39606,-0.57471 2.39606,-0.49017 2.39608,-0.57892 2.39606,-0.0303 2.39606,-0.0214 2.39609,0.10056 2.39605,0.0374 2.39606,0.14301 2.39609,-0.0575 2.39606,-0.12741 2.39605,0.0823 2.39609,-0.10947 2.39606,-0.14053 2.39605,0.0872 2.39609,-0.10407 2.39606,-0.0795 2.39606,-0.0586 2.39608,-0.57642 2.39606,-0.30743 2.39606,-0.44681 2.39609,-0.0853 2.39605,-0.0951 2.39606,0.0159 2.39609,0.0474 2.39606,-0.23907 2.39605,-0.10791 2.39609,-0.0765 2.39606,-0.29968 2.39605,-0.39243 2.39609,-0.37603 2.39606,-0.44913 2.39606,0.13419 2.39608,-0.0154 2.39606,0.16458 2.39606,0.0592 2.39609,0.13333 2.39605,0.10983 2.39606,0.0985 2.39609,-0.23593 2.39605,-0.13504 2.39606,-0.17334 2.39609,-0.29702 2.39606,-0.2226 2.39605,-0.0762 2.39609,-0.12061 2.39606,0.0107 2.39606,-0.29263 2.39608,-0.2829 2.39606,-0.14114 2.39606,-0.0577 2.39609,-0.26675 2.39605,-0.0699 2.39606,-0.19968 2.39609,0.16758 2.39605,0.0328 2.39606,-0.0757 2.39609,-0.22754 2.39606,-0.0314 2.39605,-10e-4 2.39609,-0.10031 2.39606,-0.22787 2.39606,-0.19428 2.39608,-0.007 2.39606,-0.11298 2.39606,-0.19708 2.39608,-0.13061 2.39606,0.11965 2.39606,-0.0223 2.39609,0.0356 2.39605,-0.0516 2.39606,0.14279 2.39609,0.026 2.39606,-0.0428 2.39605,-0.15738 2.39609,-0.0987 2.39606,-0.0574 2.39605,-0.0488 2.39609,-0.10159 2.39606,0.008 2.39606,-0.0158 2.39608,0.0502 2.39606,0.25855 2.39606,0.0437 2.39609,0.0919 2.39605,-0.0342 2.39606,-0.0166 2.39609,0.029 2.39606,-0.0409 2.39605,-0.23557 2.39609,-0.0932"
         style="fill:none;stroke:#d95319;stroke-width:2;stroke-linecap:butt;stroke-linejoin:bevel;stroke-miterlimit:1;stroke-dasharray:8, 8;stroke-dashoffset:0;stroke-opacity:0.501961"
         id="path336" />
    </g>
    <g
       id="g338"
       transform="matrix(0.5,0,0,-0.5,-3.9925268,230.12501)">
      <path
         d="m 71.5,409.5 h 2.396065 2.396072 2.396065 2.396065 2.396072 2.396065 2.396065 2.396072 2.396065 2.396064 2.396073 2.396067 2.39606 2.39607 2.39607 2.39606 2.39608 2.39606 2.39607 2.39607 2.39606 2.39608 2.39606 2.39607 2.39607 2.39607 2.39606 2.39607 2.39607 l 0.0551,0.0447"
         style="fill:none;stroke:#d95319;stroke-width:2;stroke-linecap:butt;stroke-linejoin:bevel;stroke-miterlimit:1;stroke-dasharray:8, 8;stroke-dashoffset:0;stroke-opacity:0.501961"
         id="path340" />
    </g>
    <g
       id="g342"
       transform="matrix(0.5,0,0,-0.5,-3.9925268,230.12501)">
      <path
         d="m 145.24995,409.54471 0.52814,-0.53702 2.39607,-2.45612 2.39606,-3.43798 2.39607,-4.36667 2.39608,-2.73654 2.39605,-3.077 2.39608,-2.30963 2.39607,-2.9133 2.39605,-2.2627 2.39608,-3.22934 2.39607,-1.25799 2.39607,-4.44293 2.39606,-2.76838 2.39607,-1.55026 2.39607,-2.69504 2.39606,-2.05569 2.39607,-2.13681 2.39608,-2.22668 2.39605,-1.60938 2.39608,-1.1796 2.39607,-1.72387 2.39605,-0.86869 2.39608,-1.00051 2.39607,-0.57731 2.39606,-0.34857 2.39607,-1.08529 2.39607,-0.86371 2.39606,-0.58191 2.39607,-1.08893 2.39607,-0.45331 2.39606,-0.54153 2.39607,-0.92963 2.39608,0.52249 2.39605,-0.66021 2.39607,0.49603 2.39608,0.69189 2.39605,-0.46521 2.39608,-0.40472 2.39607,0.3464 2.39606,-0.79297 2.39607,0.0429 2.39607,-0.71109 2.39606,-0.5332 2.39607,-0.19772 2.39607,-0.0261 2.39606,-0.50897 2.39607,0.22864 2.39606,0.67856 2.39606,0.68628 2.39608,-0.0306 2.39606,0.30838 2.39606,0.41898 2.39609,0.38027 2.39605,0.14322 2.39609,-0.46005 2.39606,-0.57971 2.39606,-0.25421 2.39608,-0.0718 2.39606,-0.20789 2.39606,-0.35269 2.39608,-0.67666 2.39606,-0.17017 2.39606,-0.26456 2.39609,0.10782 2.39605,-0.12573 2.39606,-0.13144 2.39609,0.13843 2.39606,0.0346 2.39605,0.0354 2.39609,0.13079 2.39606,-0.21615 2.39605,0.0389 2.39609,-0.30399 2.39606,-0.0731 2.39606,-0.15429 2.39608,-0.6406 2.39606,-0.32721 2.39606,-0.32464 2.39609,-0.11746 2.39605,0.12017 2.39606,-0.11599 2.39609,-0.11597 2.39606,0.0688 2.39605,-0.1832 2.39609,0.0606 2.39606,-0.12622 2.39605,-0.26368 2.39609,-0.34796 2.39606,-0.026 2.39606,0.15711 2.39608,0.31109 2.39606,0.18741 2.39606,0.0606 2.39609,0.16846 2.39605,0.22302 2.39606,0.19736 2.39609,-0.17856 2.39605,-0.33039 2.39606,-0.17874 2.39609,-0.3063 2.39606,-0.0404 2.39605,-0.0229 2.39609,-0.0683 2.39606,-0.0974 2.39606,-0.0442 2.39608,-0.18351 2.39606,0.25043 2.39606,-0.19394 2.39609,-0.0648 2.39605,-0.3461 2.39606,0.0186 2.39609,-0.0504 2.39605,-0.0635 2.39606,-0.15647 2.39609,0.18372 2.39606,-0.10657 2.39605,0.0356 2.39609,-0.0241 2.39606,-0.16116 2.39606,0.11798 2.39608,-0.14621 2.39606,-0.17419 2.39606,0.11764 2.39608,-0.006 2.39606,0.1883 2.39606,0.24548 2.39609,-0.0734 2.39605,0.19689 2.39606,0.1222 2.39609,-0.0801 2.39606,0.13843 2.39605,-0.23917 2.39609,0.0426 2.39606,-0.0611 2.39605,-0.0529 2.39609,-0.004 2.39606,-0.21634 2.39606,0.0433 2.39608,0.16745 2.39606,0.12305 2.39606,0.26132 2.39609,0.11368 2.39605,-0.10523 2.39606,0.5134 2.39609,-0.11261 2.39606,-0.0106 2.39605,-0.0749 2.39609,-0.0149"
         style="fill:none;stroke:#d95319;stroke-width:2;stroke-linecap:butt;stroke-linejoin:bevel;stroke-miterlimit:1;stroke-dasharray:8, 8;stroke-dashoffset:0;stroke-opacity:0.501961"
         id="path344" />
    </g>
    <g
       id="g346"
       transform="matrix(0.5,0,0,-0.5,-3.9925268,230.12501)">
      <path
         d="m 160.1545,367.48239 -2.39608,2.97608 -2.39605,3.2496 -2.39608,4.14923 -2.39607,4.57465 -2.39606,5.13568 -2.39607,3.36947 -2.39607,5.13349 -2.39606,13.42941 0.0551,0.0447 h 2.34096 1.86793 l 0.52814,-0.53702 2.39607,-2.45612 2.39606,-3.43798 2.39607,-4.36667 2.39608,-2.73654 2.39605,-3.077 2.39608,-2.30963 2.39607,-2.9133 2.39605,-2.2627 2.39608,-3.22934 2.39607,-1.25799 2.39607,-4.44293 2.39606,-2.76838 2.39607,-1.55026 2.39607,-2.69504 2.39606,-2.05569 2.39607,-2.13681 2.39608,-2.22668 2.39605,-1.60938 2.39608,-1.1796 2.39607,-1.72387 2.39605,-0.86869 2.39608,-1.00051 2.39607,-0.57731 2.39606,-0.34857 2.39607,-1.08529 2.39607,-0.86371 2.39606,-0.58191 2.39607,-1.08893 2.39607,-0.45331 2.39606,-0.54153 2.39607,-0.92963 2.39608,0.52249 2.39605,-0.66021 2.39607,0.49603 2.39608,0.69189 2.39605,-0.46521 2.39608,-0.40472 2.39607,0.3464 2.39606,-0.79297 2.39607,0.0429 2.39607,-0.71109 2.39606,-0.5332 2.39607,-0.19772 2.39607,-0.0261 2.39606,-0.50897 2.39607,0.22864 2.39606,0.67856 2.39606,0.68628 2.39608,-0.0306 2.39606,0.30838 2.39606,0.41898 2.39609,0.38027 2.39605,0.14322 2.39609,-0.46005 2.39606,-0.57971 2.39606,-0.25421 2.39608,-0.0718 2.39606,-0.20789 2.39606,-0.35269 2.39608,-0.67666 2.39606,-0.17017 2.39606,-0.26456 2.39609,0.10782 2.39605,-0.12573 2.39606,-0.13144 2.39609,0.13843 2.39606,0.0346 2.39605,0.0354 2.39609,0.13079 2.39606,-0.21615 2.39605,0.0389 2.39609,-0.30399 2.39606,-0.0731 2.39606,-0.15429 2.39608,-0.6406 2.39606,-0.32721 2.39606,-0.32464 2.39609,-0.11746 2.39605,0.12017 2.39606,-0.11599 2.39609,-0.11597 2.39606,0.0688 2.39605,-0.1832 2.39609,0.0606 2.39606,-0.12622 2.39605,-0.26368 2.39609,-0.34796 2.39606,-0.026 2.39606,0.15711 2.39608,0.31109 2.39606,0.18741 2.39606,0.0606 2.39609,0.16846 2.39605,0.22302 2.39606,0.19736 2.39609,-0.17856 2.39605,-0.33039 2.39606,-0.17874 2.39609,-0.3063 2.39606,-0.0404 2.39605,-0.0229 2.39609,-0.0683 2.39606,-0.0974 2.39606,-0.0442 2.39608,-0.18351 2.39606,0.25043 2.39606,-0.19394 2.39609,-0.0648 2.39605,-0.3461 2.39606,0.0186 2.39609,-0.0504 2.39605,-0.0635 2.39606,-0.15647 2.39609,0.18372 2.39606,-0.10657 2.39605,0.0356 2.39609,-0.0241 2.39606,-0.16116 2.39606,0.11798 2.39608,-0.14621 2.39606,-0.17419 2.39606,0.11764 2.39608,-0.006 2.39606,0.1883 2.39606,0.24548 2.39609,-0.0734 2.39605,0.19689 2.39606,0.1222 2.39609,-0.0801 2.39606,0.13843 2.39605,-0.23917 2.39609,0.0426 2.39606,-0.0611 2.39605,-0.0529 2.39609,-0.004 2.39606,-0.21634 2.39606,0.0433 2.39608,0.16745 2.39606,0.12305 2.39606,0.26132 2.39609,0.11368 2.39605,-0.10523 2.39606,0.5134 2.39609,-0.11261 2.39606,-0.0106 2.39605,-0.0749 L 498,345.1455 v -49.49338 l -2.39609,0.0932 -2.39605,0.23557 -2.39606,0.0409 -2.39609,-0.029 -2.39606,0.0166 -2.39605,0.0342 -2.39609,-0.0919 -2.39606,-0.0437 -2.39606,-0.25855 -2.39608,-0.0502 -2.39606,0.0158 -2.39606,-0.008 -2.39609,0.10159 -2.39605,0.0488 -2.39606,0.0574 -2.39609,0.0987 -2.39605,0.15738 -2.39606,0.0428 -2.39609,-0.026 -2.39606,-0.14279 -2.39605,0.0516 -2.39609,-0.0356 -2.39606,0.0223 -2.39606,-0.11965 -2.39608,0.13061 -2.39606,0.19708 -2.39606,0.11298 -2.39608,0.007 -2.39606,0.19428 -2.39606,0.22787 -2.39609,0.10031 -2.39605,10e-4 -2.39606,0.0314 -2.39609,0.22754 -2.39606,0.0757 -2.39605,-0.0328 -2.39609,-0.16758 -2.39606,0.19968 -2.39605,0.0699 -2.39609,0.26675 -2.39606,0.0577 -2.39606,0.14114 -2.39608,0.2829 -2.39606,0.29263 -2.39606,-0.0107 -2.39609,0.12061 -2.39605,0.0762 -2.39606,0.2226 -2.39609,0.29702 -2.39606,0.17334 -2.39605,0.13504 -2.39609,0.23593 -2.39606,-0.0985 -2.39605,-0.10983 -2.39609,-0.13333 -2.39606,-0.0592 -2.39606,-0.16458 -2.39608,0.0154 -2.39606,-0.13419 -2.39606,0.44913 -2.39609,0.37603 -2.39605,0.39243 -2.39606,0.29968 -2.39609,0.0765 -2.39605,0.10791 -2.39606,0.23907 -2.39609,-0.0474 -2.39606,-0.0159 -2.39605,0.0951 -2.39609,0.0853 -2.39606,0.44681 -2.39606,0.30743 -2.39608,0.57642 -2.39606,0.0586 -2.39606,0.0795 -2.39609,0.10407 -2.39605,-0.0872 -2.39606,0.14053 -2.39609,0.10947 -2.39605,-0.0823 -2.39606,0.12741 -2.39609,0.0575 -2.39606,-0.14301 -2.39605,-0.0374 -2.39609,-0.10056 -2.39606,0.0214 -2.39606,0.0303 -2.39608,0.57892 -2.39606,0.49017 -2.39606,0.57471 -2.39608,0.41592 -2.39606,0.20951 -2.39606,0.32601 -2.39609,0.19315 -2.39605,-0.0125 -2.39609,-0.66376 -2.39606,-0.64068 -2.39606,-0.335 -2.39608,-0.31607 -2.39606,-0.87985 -2.39606,-0.85077 -2.39607,-0.93442 -2.39606,0.23313 -2.39607,-0.1203 -2.39607,0.064 -2.39606,0.59302 -2.39607,0.74152 -2.39607,0.3638 -2.39606,0.74655 -2.39607,-0.0477 -2.39608,0.47128 -2.39605,0.22644 -2.39608,-0.0107 -2.39607,0.67606 -2.39605,1.13229 -2.39608,0.39557 -2.39607,1.39975 -2.39606,1.09485 -2.39607,1.71854 -2.39607,1.4104 -2.39606,0.94967 -2.39607,1.45328 -2.39607,1.63986 -2.39606,1.83386 -2.39607,2.40351 -2.39608,2.34466 -2.39605,2.56937 -2.39607,2.51096 -2.39608,2.32135 -2.39605,3.28384 -2.39608,3.14004 -2.39607,2.9574 -2.39606,3.36811 -2.39607,2.91122 -2.39607,3.77096 -2.39606,4.08286 -2.39607,2.52722 -2.39607,3.09616 -2.39608,2.59113 -2.39605,3.19714 -2.39607,2.77356 z"
         style="fill:#d95319;fill-opacity:0.2;fill-rule:nonzero;stroke:none"
         id="path348" />
    </g>
    <g
       id="g350"
       transform="matrix(0.5,0,0,-0.5,-3.9925268,230.12501)">
      <path
         d="m 71.5,409.5 h 2.396065 2.396072 2.396065 2.396065 2.396072 2.396065 2.396065 2.396072 2.396065 2.396064 2.396073 2.396067 2.39606 2.39607 2.39607 2.39606 2.39608 2.39606 2.39607 2.39607 2.39606 2.39608 2.39606 2.39607 2.39607 2.39607 2.39606 2.39607 2.39607 l 2.39606,-3.17456 2.39607,-3.80023 2.39607,-2.85868 2.39606,-1.19574 2.39607,-5.18386 2.39608,-3.69892 2.39605,-6.6235 2.39608,-1.79337 2.39607,-3.68857 2.39605,-1.96398 2.39608,-3.40314 2.39607,-1.77707 2.39607,-1.60025 2.39606,-1.47333 2.39607,-1.59671 2.39607,-4.46893 2.39606,-5.87232 2.39607,-4.05035 2.39608,-3.11014 2.39605,-3.23825 2.39608,-3.15164 2.39607,-4.8439 2.39605,-0.66449 2.39608,-2.1124 2.39607,-3.48172 2.39606,-3.55103 2.39607,-2.79916 2.39607,-3.2164 2.39606,-3.50177 2.39607,-3.09708 2.39607,-2.63739 2.39606,-1.13351 2.39607,-1.93784 2.39608,-2.29644 2.39605,-1.63413 2.39607,-0.7413 2.39608,-0.91364 2.39605,-1.61047 2.39608,-2.33084 2.39607,-2.026 2.39606,-2.09381 2.39607,-2.07114 2.39607,-2.29712 2.39606,-2.22882 2.39607,-2.0867 2.39607,-2.17368 2.39606,-1.84884 2.39607,-1.65027 2.39606,-1.74796 2.39606,-2.46792 2.39608,-2.44397 2.39606,-2.22107 2.39606,-1.776 2.39609,-2.37842 2.39605,-2.70444 2.39609,-2.62771 2.39606,-2.24347 2.39606,-2.57935 2.39608,-2.83389 2.39606,-3.07733 2.39606,-2.48732 2.39608,-2.55028 2.39606,-2.49315 2.39606,-2.69905 2.39609,-2.60055 2.39605,-2.47649 2.39606,-2.48161 2.39609,-2.84377 2.39606,-2.38396 2.39605,-2.72871 2.39609,-2.58937 2.39606,-2.53175 2.39605,-2.71383 2.39609,-2.55218 2.39606,-2.56009 2.39606,-2.5993 2.39608,-1.85999 2.39606,-2.39954 2.39606,-2.23399 2.39609,-2.05522 2.39605,-1.78696 2.39606,-2.08166 2.39609,-2.34262 2.39606,-2.92684 2.39605,-1.97641 2.39609,-2.17155 2.39606,-2.05792 2.39605,-2.08048 2.39609,-1.82631 2.39606,-1.77609 2.39606,-1.16689 2.39608,-1.53846 2.39606,-1.35564 2.39606,-1.40463 2.39609,-1.27634 2.39605,-1.14555 2.39606,-0.7007 2.39609,-1.42806 2.39605,-0.90555 2.39606,-1.51715 2.39609,-1.33723 2.39606,-1.28853 2.39605,-1.42251 2.39609,-2.01828 2.39606,-1.2239 2.39606,-2.07715 2.39608,-1.1278 2.39606,-1.34665 2.39606,-1.79132 2.39609,-1.48436 2.39605,-1.29274 2.39606,-1.18634 2.39609,-0.10222 2.39605,-0.72002 2.39606,-0.39863 2.39609,-0.61048 2.39606,-0.69211 2.39605,0.16021 2.39609,0.0933 2.39606,-1.19583 2.39606,-0.82774 2.39608,-1.12938 2.39606,-0.38864 2.39606,0.11955 2.39608,-0.40492 2.39606,-1.04338 2.39606,-0.5678 2.39609,0.0127 2.39605,-0.35983 2.39606,-0.2709 2.39609,-0.51902 2.39606,-0.78933 2.39605,-0.36692 2.39609,0.38514 2.39606,0.71727 2.39605,0.29969 2.39609,0.2148 2.39606,-0.43748 2.39606,0.23959 2.39608,1.10519 2.39606,0.6081 2.39606,-1.36867 2.39609,0.0335 2.39605,0.31272 2.39606,0.8715 2.39609,-0.0137 2.39606,-0.69863 2.39605,-0.80508 2.39609,1.06692"
         style="fill:none;stroke:#0072bd;stroke-width:3;stroke-linecap:butt;stroke-linejoin:round;stroke-miterlimit:10;stroke-dasharray:none;stroke-opacity:1"
         id="path352" />
    </g>
    <g
       id="g354"
       transform="matrix(0.5,0,0,-0.5,-3.9925268,230.12501)">
      <path
         d="m 71.5,409.5 h 2.396065 2.396072 2.396065 2.396065 2.396072 2.396065 2.396065 2.396072 2.396065 2.396064 2.396073 2.396067 2.39606 2.39607 2.39607 2.39606 2.39608 2.39606 2.39607 2.39607 2.39606 2.39608 2.39606 2.39607 2.39607 2.39607 2.39606 2.39607 2.39607 l 2.39606,-5.74268 2.39607,-3.78491 2.39607,-2.91281 2.39606,-4.28683 2.39607,-4.47068 2.39608,-3.44287 2.39605,-3.1633 2.39608,-2.64285 2.39607,-2.84344 2.39605,-2.72992 2.39608,-2.91022 2.39607,-2.17709 2.39607,-3.48505 2.39606,-3.42563 2.39607,-2.66061 2.39607,-2.80314 2.39606,-2.71191 2.39607,-2.54709 2.39608,-2.68338 2.39605,-2.44659 2.39608,-1.75046 2.39607,-2.11743 2.39605,-1.71903 2.39608,-1.67257 2.39607,-1.49042 2.39606,-1.09122 2.39607,-1.36258 2.39607,-1.15847 2.39606,-0.76581 2.39607,-1.24967 2.39607,-1.0859 2.39606,-0.81821 2.39607,-1.1647 2.39608,0.0635 2.39605,-0.89627 2.39607,-0.09 2.39608,0.35131 2.39605,-0.34582 2.39608,-0.43802 2.39607,0.19702 2.39606,-0.76974 2.39607,-0.16043 2.39607,-0.72632 2.39606,-0.56311 2.39607,-0.13083 2.39607,0.0471 2.39606,-0.37107 2.39607,0.58155 2.39606,0.76464 2.39606,0.78309 2.39608,0.14276 2.39606,0.32168 2.39606,0.52985 2.39609,0.522 2.39605,0.0779 2.39609,-0.3266 2.39606,-0.45288 2.39606,-0.23184 2.39608,-0.24387 2.39606,-0.39129 2.39606,-0.42142 2.39608,-0.62781 2.39606,-0.10025 2.39606,-0.14297 2.39609,0.10415 2.39605,-0.0441 2.39606,0.006 2.39609,0.0405 2.39606,-0.0464 2.39605,0.0589 2.39609,0.0107 2.39606,-0.17837 2.39605,0.0631 2.39609,-0.20404 2.39606,-0.0763 2.39606,-0.10644 2.39608,-0.60849 2.39606,-0.31732 2.39606,-0.38575 2.39609,-0.10141 2.39605,0.0126 2.39606,-0.0501 2.39609,-0.0343 2.39606,-0.0851 2.39605,-0.14557 2.39609,-0.008 2.39606,-0.21295 2.39605,-0.32804 2.39609,-0.36203 2.39606,-0.23754 2.39606,0.14566 2.39608,0.14782 2.39606,0.176 2.39606,0.0599 2.39609,0.15091 2.39605,0.16642 2.39606,0.14795 2.39609,-0.20725 2.39605,-0.23273 2.39606,-0.17602 2.39609,-0.30167 2.39606,-0.1315 2.39605,-0.0496 2.39609,-0.0944 2.39606,-0.0433 2.39606,-0.16839 2.39608,-0.23322 2.39606,0.0547 2.39606,-0.12586 2.39609,-0.16577 2.39605,-0.20797 2.39606,-0.0906 2.39609,0.0586 2.39605,-0.0154 2.39606,-0.11608 2.39609,-0.0219 2.39606,-0.069 2.39605,0.0171 2.39609,-0.0622 2.39606,-0.19452 2.39606,-0.0382 2.39608,-0.0767 2.39606,-0.14358 2.39606,-0.0397 2.39608,-0.0686 2.39606,0.15399 2.39606,0.1116 2.39609,-0.0189 2.39605,0.0726 2.39606,0.13247 2.39609,-0.027 2.39606,0.0478 2.39605,-0.19827 2.39609,-0.0281 2.39606,-0.0593 2.39605,-0.0508 2.39609,-0.053 2.39606,-0.10419 2.39606,0.0138 2.39608,0.10879 2.39606,0.1908 2.39606,0.15252 2.39609,0.10279 2.39605,-0.0697 2.39606,0.24841 2.39609,-0.0418 2.39606,-0.0257 2.39605,-0.15521 2.39609,-0.0541"
         style="fill:none;stroke:#d95319;stroke-width:3;stroke-linecap:butt;stroke-linejoin:round;stroke-miterlimit:10;stroke-dasharray:none;stroke-opacity:1"
         id="path356" />
    </g>
    <g
       id="g358"
       transform="matrix(0.125,0,0,-0.125,0,213)">
      <g
         id="g360"
         transform="matrix(4,0,0,4,434.05979,77.999954)">
        <text
           xml:space="preserve"
           transform="translate(0,5.5)"
           style="font-variant:normal;font-weight:normal;font-size:16.2px;font-family:Arial;-inkscape-font-specification:ArialMT;writing-mode:lr-tb;fill:#000000;fill-opacity:1;fill-rule:nonzero;stroke:none"
           id="text364"><tspan
             x="0 13.4946 22.501801 26.989201 35.996399 45.003601"
             y="0"
             sodipodi:role="line"
             id="tspan362">Mutant</tspan></text>
      </g>
    </g>
    <g
       id="g366"
       transform="matrix(0.5,0,0,-0.5,-3.9925268,230.12501)">
      <path
         d="m 83.5,53.75 h 30"
         style="fill:none;stroke:#0072bd;stroke-width:3;stroke-linecap:butt;stroke-linejoin:round;stroke-miterlimit:10;stroke-dasharray:none;stroke-opacity:1"
         id="path368" />
    </g>
    <g
       id="g370"
       transform="matrix(0.125,0,0,-0.125,0,213)">
      <g
         id="g372"
         transform="matrix(4,0,0,4,434.05979,153.99995)">
        <text
           xml:space="preserve"
           transform="translate(0,5.5)"
           style="font-variant:normal;font-weight:normal;font-size:16.2px;font-family:Arial;-inkscape-font-specification:ArialMT;writing-mode:lr-tb;fill:#000000;fill-opacity:1;fill-rule:nonzero;stroke:none"
           id="text376"><tspan
             x="0 15.2766 18.872999 22.4694 31.476601 35.964001 40.451401 48.551399 57.558601"
             y="0"
             sodipodi:role="line"
             id="tspan374">Wild type</tspan></text>
      </g>
    </g>
    <g
       id="g378"
       transform="matrix(0.5,0,0,-0.5,-3.9925268,230.12501)">
      <path
         d="m 83.5,72.75 h 30"
         style="fill:none;stroke:#d95319;stroke-width:3;stroke-linecap:butt;stroke-linejoin:round;stroke-miterlimit:10;stroke-dasharray:none;stroke-opacity:1"
         id="path380" />
    </g>
  </g>
</svg>
