<?xml version="1.0" encoding="UTF-8" standalone="no"?>
<!-- Created with Inkscape (http://www.inkscape.org/) -->

<svg
   version="1.1"
   id="svg4633"
   width="278.66666"
   height="282.66666"
   viewBox="0 0 278.66666 282.66666"
   sodipodi:docname="Figure3_012625.svg"
   inkscape:version="1.2.2 (b0a8486, 2022-12-01)"
   xmlns:inkscape="http://www.inkscape.org/namespaces/inkscape"
   xmlns:sodipodi="http://sodipodi.sourceforge.net/DTD/sodipodi-0.dtd"
   xmlns="http://www.w3.org/2000/svg"
   xmlns:svg="http://www.w3.org/2000/svg">
  <defs
     id="defs4637" />
  <sodipodi:namedview
     id="namedview4635"
     pagecolor="#ffffff"
     bordercolor="#000000"
     borderopacity="0.25"
     inkscape:showpageshadow="2"
     inkscape:pageopacity="0.0"
     inkscape:pagecheckerboard="0"
     inkscape:deskcolor="#d1d1d1"
     showgrid="false"
     inkscape:zoom="1.7791439"
     inkscape:cx="149.22907"
     inkscape:cy="141.64115"
     inkscape:window-width="1440"
     inkscape:window-height="900"
     inkscape:window-x="0"
     inkscape:window-y="0"
     inkscape:window-maximized="0"
     inkscape:current-layer="g4641">
    <inkscape:page
       x="0"
       y="0"
       id="page4639"
       width="278.66666"
       height="282.66666" />
  </sodipodi:namedview>
  <g
     id="g4641"
     inkscape:groupmode="layer"
     inkscape:label="Page 1"
     transform="matrix(1.3333333,0,0,-1.3333333,0,282.66667)">
    <path
       d="M 31.757473,24.62501 H 206.75747 v 187.25 H 31.757473 Z"
       style="fill:#ffffff;fill-opacity:1;fill-rule:nonzero;stroke:none;stroke-width:0.5"
       id="path4651" />
    <path
       d="M 31.757473,24.62501 V 211.875"
       style="fill:none;stroke:#262626;stroke-width:0.25;stroke-linecap:butt;stroke-linejoin:round;stroke-miterlimit:10;stroke-dasharray:none;stroke-opacity:0.14902"
       id="path4655" />
    <path
       d="M 53.436978,24.62501 V 211.875"
       style="fill:none;stroke:#262626;stroke-width:0.25;stroke-linecap:butt;stroke-linejoin:round;stroke-miterlimit:10;stroke-dasharray:none;stroke-opacity:0.14902"
       id="path4659" />
    <path
       d="M 96.795993,24.62501 V 211.875"
       style="fill:none;stroke:#262626;stroke-width:0.25;stroke-linecap:butt;stroke-linejoin:round;stroke-miterlimit:10;stroke-dasharray:none;stroke-opacity:0.14902"
       id="path4663" />
    <path
       d="M 140.15501,24.62501 V 211.875"
       style="fill:none;stroke:#262626;stroke-width:0.25;stroke-linecap:butt;stroke-linejoin:round;stroke-miterlimit:10;stroke-dasharray:none;stroke-opacity:0.14902"
       id="path4667" />
    <path
       d="M 183.51402,24.62501 V 211.875"
       style="fill:none;stroke:#262626;stroke-width:0.25;stroke-linecap:butt;stroke-linejoin:round;stroke-miterlimit:10;stroke-dasharray:none;stroke-opacity:0.14902"
       id="path4671" />
    <path
       d="M 206.75747,24.62501 H 31.757473"
       style="fill:none;stroke:#262626;stroke-width:0.25;stroke-linecap:butt;stroke-linejoin:round;stroke-miterlimit:10;stroke-dasharray:none;stroke-opacity:0.14902"
       id="path4675" />
    <path
       d="M 206.75747,69.20834 H 31.757473"
       style="fill:none;stroke:#262626;stroke-width:0.25;stroke-linecap:butt;stroke-linejoin:round;stroke-miterlimit:10;stroke-dasharray:none;stroke-opacity:0.14902"
       id="path4679" />
    <path
       d="M 206.75747,113.79168 H 31.757473"
       style="fill:none;stroke:#262626;stroke-width:0.25;stroke-linecap:butt;stroke-linejoin:round;stroke-miterlimit:10;stroke-dasharray:none;stroke-opacity:0.14902"
       id="path4683" />
    <path
       d="M 206.75747,158.37502 H 31.757473"
       style="fill:none;stroke:#262626;stroke-width:0.25;stroke-linecap:butt;stroke-linejoin:round;stroke-miterlimit:10;stroke-dasharray:none;stroke-opacity:0.14902"
       id="path4687" />
    <path
       d="M 206.75747,202.95835 H 31.757473"
       style="fill:none;stroke:#262626;stroke-width:0.25;stroke-linecap:butt;stroke-linejoin:round;stroke-miterlimit:10;stroke-dasharray:none;stroke-opacity:0.14902"
       id="path4691" />
    <path
       d="M 31.757473,24.62501 H 206.75747"
       style="fill:none;stroke:#262626;stroke-width:0.25;stroke-linecap:square;stroke-linejoin:round;stroke-miterlimit:10;stroke-dasharray:none;stroke-opacity:1"
       id="path4695" />
    <path
       d="m 31.757473,24.62501 v 1.8725"
       style="fill:none;stroke:#262626;stroke-width:0.25;stroke-linecap:square;stroke-linejoin:round;stroke-miterlimit:10;stroke-dasharray:none;stroke-opacity:1"
       id="path4699" />
    <path
       d="m 53.436978,24.62501 v 1.8725"
       style="fill:none;stroke:#262626;stroke-width:0.25;stroke-linecap:square;stroke-linejoin:round;stroke-miterlimit:10;stroke-dasharray:none;stroke-opacity:1"
       id="path4703" />
    <path
       d="m 96.795993,24.62501 v 1.8725"
       style="fill:none;stroke:#262626;stroke-width:0.25;stroke-linecap:square;stroke-linejoin:round;stroke-miterlimit:10;stroke-dasharray:none;stroke-opacity:1"
       id="path4707" />
    <path
       d="m 140.15501,24.62501 v 1.8725"
       style="fill:none;stroke:#262626;stroke-width:0.25;stroke-linecap:square;stroke-linejoin:round;stroke-miterlimit:10;stroke-dasharray:none;stroke-opacity:1"
       id="path4711" />
    <path
       d="m 183.51402,24.62501 v 1.8725"
       style="fill:none;stroke:#262626;stroke-width:0.25;stroke-linecap:square;stroke-linejoin:round;stroke-miterlimit:10;stroke-dasharray:none;stroke-opacity:1"
       id="path4715" />
    <text
       xml:space="preserve"
       transform="scale(1,-1)"
       style="font-variant:normal;font-weight:normal;font-size:9px;font-family:Arial;-inkscape-font-specification:ArialMT;writing-mode:lr-tb;fill:#262626;fill-opacity:1;fill-rule:nonzero;stroke:none;stroke-width:0.5"
       id="text4723"
       x="26.507471"
       y="-13.325"><tspan
         x="26.507471 31.511473"
         y="-13.325"
         sodipodi:role="line"
         id="tspan4721"
         style="stroke-width:0.5">0 </tspan></text>
    <text
       xml:space="preserve"
       transform="scale(1,-1)"
       style="font-variant:normal;font-weight:normal;font-size:9px;font-family:Arial;-inkscape-font-specification:ArialMT;writing-mode:lr-tb;fill:#262626;fill-opacity:1;fill-rule:nonzero;stroke:none;stroke-width:0.5"
       id="text4731"
       x="46.936977"
       y="-13.325"><tspan
         x="46.936977 51.940979 56.944977"
         y="-13.325"
         sodipodi:role="line"
         id="tspan4729"
         style="stroke-width:0.5">25 </tspan></text>
    <text
       xml:space="preserve"
       transform="scale(1,-1)"
       style="font-variant:normal;font-weight:normal;font-size:9px;font-family:Arial;-inkscape-font-specification:ArialMT;writing-mode:lr-tb;fill:#262626;fill-opacity:1;fill-rule:nonzero;stroke:none;stroke-width:0.5"
       id="text4739"
       x="90.295998"
       y="-13.325"><tspan
         x="90.295998 95.299995 100.30399"
         y="-13.325"
         sodipodi:role="line"
         id="tspan4737"
         style="stroke-width:0.5">75 </tspan></text>
    <text
       xml:space="preserve"
       transform="scale(1,-1)"
       style="font-variant:normal;font-weight:normal;font-size:9px;font-family:Arial;-inkscape-font-specification:ArialMT;writing-mode:lr-tb;fill:#262626;fill-opacity:1;fill-rule:nonzero;stroke:none;stroke-width:0.5"
       id="text4747"
       x="132.40501"
       y="-13.325"><tspan
         x="132.40501 137.40901 142.41301"
         y="-13.325"
         sodipodi:role="line"
         id="tspan4745"
         style="stroke-width:0.5">125</tspan></text>
    <text
       xml:space="preserve"
       transform="scale(1,-1)"
       style="font-variant:normal;font-weight:normal;font-size:9px;font-family:Arial;-inkscape-font-specification:ArialMT;writing-mode:lr-tb;fill:#262626;fill-opacity:1;fill-rule:nonzero;stroke:none;stroke-width:0.5"
       id="text4755"
       x="175.76402"
       y="-13.325"><tspan
         x="175.76402 180.76802 185.77202"
         y="-13.325"
         sodipodi:role="line"
         id="tspan4753"
         style="stroke-width:0.5">175</tspan></text>
    <path
       d="M 31.757473,24.62501 V 211.875"
       style="fill:none;stroke:#262626;stroke-width:0.25;stroke-linecap:square;stroke-linejoin:round;stroke-miterlimit:10;stroke-dasharray:none;stroke-opacity:1"
       id="path4919" />
    <path
       d="m 31.757473,24.62501 h 1.872501"
       style="fill:none;stroke:#262626;stroke-width:0.25;stroke-linecap:square;stroke-linejoin:round;stroke-miterlimit:10;stroke-dasharray:none;stroke-opacity:1"
       id="path4923" />
    <path
       d="m 31.757473,69.20834 h 1.872501"
       style="fill:none;stroke:#262626;stroke-width:0.25;stroke-linecap:square;stroke-linejoin:round;stroke-miterlimit:10;stroke-dasharray:none;stroke-opacity:1"
       id="path4927" />
    <path
       d="m 31.757473,113.79168 h 1.872501"
       style="fill:none;stroke:#262626;stroke-width:0.25;stroke-linecap:square;stroke-linejoin:round;stroke-miterlimit:10;stroke-dasharray:none;stroke-opacity:1"
       id="path4931" />
    <path
       d="m 31.757473,158.37502 h 1.872501"
       style="fill:none;stroke:#262626;stroke-width:0.25;stroke-linecap:square;stroke-linejoin:round;stroke-miterlimit:10;stroke-dasharray:none;stroke-opacity:1"
       id="path4935" />
    <path
       d="m 31.757473,202.95835 h 1.872501"
       style="fill:none;stroke:#262626;stroke-width:0.25;stroke-linecap:square;stroke-linejoin:round;stroke-miterlimit:10;stroke-dasharray:none;stroke-opacity:1"
       id="path4939" />
    <text
       xml:space="preserve"
       transform="scale(1,-1)"
       style="font-variant:normal;font-weight:normal;font-size:9px;font-family:Arial;-inkscape-font-specification:ArialMT;writing-mode:lr-tb;fill:#262626;fill-opacity:1;fill-rule:nonzero;stroke:none;stroke-width:0.5"
       id="text4947"
       x="23.457474"
       y="-21.375"><tspan
         x="23.457474"
         y="-21.375"
         id="tspan4945"
         style="stroke-width:0.5">0</tspan></text>
    <text
       xml:space="preserve"
       transform="scale(1,-1)"
       style="font-variant:normal;font-weight:normal;font-size:9px;font-family:Arial;-inkscape-font-specification:ArialMT;writing-mode:lr-tb;fill:#262626;fill-opacity:1;fill-rule:nonzero;stroke:none;stroke-width:0.5"
       id="text4955"
       x="10.957474"
       y="-65.958336"><tspan
         x="10.957474 15.961474 18.454473 23.458475"
         y="-65.958336"
         sodipodi:role="line"
         id="tspan4953"
         style="stroke-width:0.5">0.05</tspan></text>
    <text
       xml:space="preserve"
       transform="scale(1,-1)"
       style="font-variant:normal;font-weight:normal;font-size:9px;font-family:Arial;-inkscape-font-specification:ArialMT;writing-mode:lr-tb;fill:#262626;fill-opacity:1;fill-rule:nonzero;stroke:none;stroke-width:0.5"
       id="text4963"
       x="15.957474"
       y="-110.54168"><tspan
         x="15.957474 20.961473 23.454473"
         y="-110.54168"
         sodipodi:role="line"
         id="tspan4961"
         style="stroke-width:0.5">0.1</tspan></text>
    <text
       xml:space="preserve"
       transform="scale(1,-1)"
       style="font-variant:normal;font-weight:normal;font-size:9px;font-family:Arial;-inkscape-font-specification:ArialMT;writing-mode:lr-tb;fill:#262626;fill-opacity:1;fill-rule:nonzero;stroke:none;stroke-width:0.5"
       id="text4971"
       x="10.957474"
       y="-155.12502"><tspan
         x="10.957474 15.961474 18.454473 23.458475"
         y="-155.12502"
         sodipodi:role="line"
         id="tspan4969"
         style="stroke-width:0.5">0.15</tspan></text>
    <text
       xml:space="preserve"
       transform="scale(1,-1)"
       style="font-variant:normal;font-weight:normal;font-size:9px;font-family:Arial;-inkscape-font-specification:ArialMT;writing-mode:lr-tb;fill:#262626;fill-opacity:1;fill-rule:nonzero;stroke:none;stroke-width:0.5"
       id="text4979"
       x="15.957474"
       y="-199.70834"><tspan
         x="15.957474 20.961473 23.454473"
         y="-199.70834"
         sodipodi:role="line"
         id="tspan4977"
         style="stroke-width:0.5">0.2</tspan></text>
    <text
       xml:space="preserve"
       transform="matrix(-4.25e-8,1,1,4.25e-8,0,0)"
       style="font-variant:normal;font-weight:normal;font-size:9.9px;font-family:Arial;-inkscape-font-specification:ArialMT;writing-mode:lr-tb;fill:#262626;fill-opacity:1;fill-rule:nonzero;stroke:none;stroke-width:0.5"
       id="text4987"
       x="88.500092"
       y="7.2074771"><tspan
         x="88.500092 96.19239 102.23139 108.82479 111.56709 113.76489 119.26929 122.01159 127.51599 133.02039 137.97038 140.16818 142.91049"
         y="7.2074771"
         sodipodi:role="line"
         id="tspan4985"
         style="stroke-width:0.5">GFP intensity</tspan></text>
    <path
       d="m 44.302261,24.602685 h 0.177368 0.291577 0.176666 0.299961 0.168285 0.302822 0.165421 0.30582 0.162426 0.310509 0.157734 0.314678 0.153569 0.323337 0.144909 0.328503 0.13974 0.338452 0.129795 0.348995 0.119245 0.36025 0.108 0.36613 0.102115 0.36551 0.102735 0.36566 0.102585 0.363545 0.104695 0.36372 0.10453 0.365575 0.102665 0.370375 0.09787 0.37309 0.09515 0.379725 0.08852 0.384705 0.08355 0.38732 0.08092 0.387815 0.08043 0.388745 0.0795 0.39289 0.07535 0.392625 0.07563 0.395335 0.07291 0.39771 0.07053 0.39849 0.06976 0.399515 0.06873 0.401065 0.06718 0.40604 0.0622 0.411 0.05724 0.41702 0.05123 0.42574 0.0425 0.43523 0.033 0.44856 0.0197 0.456465 0.0118 0.46577 0.0025 0.139565 l 0.32868,0.45505 0.46824,0.6875 0.468245,0.75026 0.468245,0.918975 0.46825,1.05853 0.468235,1.41832 0.46825,1.46091 0.468245,1.217145 0.468245,1.43988 0.46825,1.126085 0.468235,1.21295 0.46825,1.474565 0.468245,1.955765 0.468245,2.17575 0.46825,2.29996 0.468235,2.30624 0.46825,1.94066 0.468245,1.46811 0.468245,0.83647 0.468245,1.087665 0.46824,1.442105 0.46825,0.786315 0.468245,1.0376 0.46824,1.64656 0.468245,2.076965 0.468245,2.276275 0.468245,2.368745 0.46825,2.939425 0.468245,3.010115 0.468245,3.41261 0.46824,4.075855 0.468245,4.052075 0.46825,4.497575 0.468245,4.513735 0.46824,4.184705 0.468245,3.740345 0.468245,3.56036 0.46825,3.25675 0.468235,3.44547 0.46825,3.7181 0.468245,4.26995 0.468245,4.08824 0.46824,4.40771 0.468245,4.27353 0.46825,4.1557 0.468245,3.33667 0.46824,2.23192 0.46825,1.14649 0.46824,1.21885 0.46825,0.82077 0.468245,0.48015 0.468245,-0.40608 0.46824,-0.58841 0.468245,-0.0874 0.468245,-0.63896 0.46825,-0.215 0.46824,-0.4752 0.468245,-0.50694 0.468245,-0.40036 0.468245,-1.02562 0.46825,-0.57061 0.468235,-0.86403 0.46825,-0.58885 0.468245,-0.10556 0.468245,-1.10592 0.46824,-1.04152 0.468255,-1.48285 0.46824,-1.14956 0.468245,-0.69008 0.468245,-0.52766 0.46825,-0.21988 0.468235,-0.36969 0.46825,0.0899 0.468245,-0.0123 0.468245,-0.18345 0.46824,-0.61357 0.468245,-0.73327 0.46825,-0.57877 0.468245,-0.43195 0.468242,-0.0215 0.46824,-0.11945 0.46825,-0.34675 0.46824,-1.02089 0.46824,-1.27984 0.46825,-1.39985 0.46825,-1.70098 0.46824,-1.39946 0.46824,-1.6566 0.46826,-2.10851 0.46824,-2.046 0.46824,-2.01419 0.46825,-2.24919 0.46824,-2.2349 0.46825,-2.13711 0.46824,-2.07152 0.46825,-2.24491 0.46824,-2.28511 0.46825,-2.30394 0.46824,-2.272845 0.46824,-2.204635 0.46825,-2.45099 0.46825,-2.5179 0.46824,-2.504485 0.46824,-2.25531 0.46825,-2.27536 0.46825,-2.157635 0.46823,-2.070115 0.46826,-2.040455 0.46824,-1.85475 0.46824,-1.737335 0.46825,-1.578275 0.46825,-1.532715 0.46824,-1.29616 0.46824,-1.24478 0.46825,-1.46344 0.46824,-1.42261 0.46824,-1.42445 0.46825,-1.23801 0.46825,-1.08209 0.46824,-0.96422 0.46824,-0.78882 0.46826,-0.87097 0.46823,-0.755475 0.46825,-0.83728 0.46824,-0.67972 0.46825,-0.764145 0.46825,-0.70679 0.46824,-0.671095 0.46824,-0.62663 0.46825,-0.508915 0.46825,-0.57428 0.46824,-0.64291 0.46824,-0.76227 0.46825,-0.64607 0.46825,-0.64159 0.46824,-0.492965 0.46824,-0.48454 0.46825,-0.59586 0.46825,-0.47081 0.46824,-0.461285 0.46823,-0.53725 0.46826,-0.55418 0.46824,-0.64487 0.46824,-0.58696 0.46825,-0.477505 0.46825,-0.26465 0.46824,-0.438005 0.46825,-0.35057 0.46823,-0.411545 0.46826,-0.36177 0.46825,-0.366255 0.46823,-0.42543 0.46826,-0.36905 0.46823,-0.31554 0.46825,-0.151105 0.46824,-0.25467 0.46825,-0.292585 0.46825,-0.2453 0.46824,-0.247345 0.46824,-0.213015 0.46826,-0.156905 0.46823,-0.11676 0.46824,-0.0316 0.46825,-0.103535 0.46825,-0.02725 0.46824,0.03145 0.46825,0.0387 0.46823,-0.0406 0.46826,-0.0459 0.46825,0.07312 0.46823,0.08113 0.46825,0.08792 0.46824,0.08349 0.46825,0.0015 0.46825,0.0055 0.46824,0.07646 0.46825,-0.04865 0.46825,-0.01685 0.46823,0.0064 0.46824,0.05508 0.46825,0.04455 0.46825,0.07841 0.46824,0.0216 0.46825,0.05081 0.46825,-0.0849 0.46824,-0.103715 0.46823,0.01705 0.46827,-0.0493 0.46824,-0.12053 0.46823,-0.05076 0.46825,-0.24379 0.46825,-0.246125 0.46824,-0.22711 0.46825,-0.20723 0.46825,-0.248155 0.46824,-0.286405 0.46825,-0.224765 0.46823,0.294985 0.46825,0.137955 0.46824,-0.0128 0.46825,0.026 0.46825,-0.0334 0.46824,-0.06444 0.46825,-0.0341 0.46824,0.01965 0.46824,0.04665 0.46824,0.101135 0.46826,0.09873 0.46824,0.02735 0.46824,0.03325 0.46825,0.05126 0.46824,-0.02325 0.46825,-0.09215 0.46825,-0.07797 0.46824,-0.0719 0.46825,-0.135255 0.46823,-0.17543 0.46825,-0.36229 0.46824,-0.49446 0.46825,-0.266665 0.46825,-0.34079 0.46824,-0.11081 0.46825,-0.176955 0.46825,-0.25029 0.46823,-0.24019 0.46824,-0.15588 0.46827,-0.150285 0.46823,-0.22946 0.46824,-0.01305 0.46825,-0.07481 0.46825,0.0541 0.46824,-0.13353 0.46825,0.162325 0.46823,-0.08992 0.46826,0.0424 0.46823,0.0267 0.46825,-0.1033 0.46825,0.07782 0.46824,-0.09721 0.46825,0.08557 0.46825,-0.0184 0.46823,0.115815 0.46826,0.13411 0.46823,-0.13118 0.46825,0.0096 0.46826,-0.11705 0.46823,-0.10568 0.46825,0.0081 0.46824,-0.122755 0.46825,0.0056 0.46825,-0.17447 0.46824,-0.146895 0.46823,-0.127395 0.46826,-0.15114 0.46824,-0.05501 0.46824,-0.119215 0.46825,0.0253 0.46825,-0.11583 0.46824,-0.134825 0.46825,0.04005 0.46823,-0.121305 0.46826,-0.17766 0.46823,-0.0411 0.46825,-0.03605 0.46825,-0.122085 0.46824,-0.06366 0.46825,0.07892 0.46824,4.15e-4 0.46824,-0.11867 0.46826,0.09119 0.46824,-0.11295 0.46824,-0.13101 0.46824,-0.0905 0.46825,-0.0385 0.46824,-0.110425 0.46825,-0.166915 0.46825,-0.14542 0.46824,-0.05734 0.46825,-0.09555 0.46823,-0.197055 0.46826,0.100925 0.46823,0.05067 0.46825,-0.08671 0.46825,-0.13057 0.46824,0.159115 0.46824,-0.0448 0.46826,0.0174 0.46824,0.226595 0.46825,0.16707 0.46825,0.16223 0.46823,0.27086 0.46824,0.382565 0.46825,0.259815 0.46823,0.2312 0.46826,0.272645 0.46825,-0.234515 0.46825,0.52536 0.46824,0.31038 0.46823,0.453155 0.46825,0.165955 0.46825,0.294005 0.46824,-0.30093 0.46827,1.041015 0.46823,0.52426 0.46824,0.413255 0.46825,0.64261 0.46823,0.27824 0.28601,0.13077 v 17.95833 11.86067 l -0.28601,0.5251 -0.46823,0.15378 -0.46825,0.09005 -0.46824,0.158525 -0.46823,0.583055 -0.46827,-0.07341 -0.46824,0.651775 -0.46825,0.10596 -0.46825,0.17456 -0.46823,-0.284625 -0.46824,-0.32832 -0.46825,-0.376435 -0.46825,0.358595 -0.46826,-0.437575 -0.46823,-0.18469 -0.46825,0.01625 -0.46824,0.232495 -0.46823,0.0458 -0.46825,0.13377 -0.46825,0.36687 -0.46824,-0.0169 -0.46826,0.05305 -0.46824,0.28563 -0.46824,0.190295 -0.46825,0.24794 -0.46825,0.323045 -0.46823,0.285855 -0.46826,0.29811 -0.46823,0.52367 -0.46825,0.294875 -0.46824,0.377075 -0.46825,0.4801 -0.46825,0.358445 -0.46824,0.340015 -0.46825,0.321165 -0.46824,0.41107 -0.46824,0.507205 -0.46824,0.65564 -0.46826,0.164045 -0.46824,0.65416 -0.46824,0.20833 -0.46825,0.13957 -0.46824,0.388825 -0.46825,-0.0402 -0.46825,-0.05786 -0.46823,-0.273985 -0.46826,-0.109405 -0.46823,-0.09864 -0.46825,-0.295085 -0.46824,0.07372 -0.46825,0.067 -0.46825,-0.01225 -0.46824,0.307985 -0.46824,0.0488 -0.46826,0.04275 -0.46823,0.12717 -0.46824,-0.0309 -0.46825,0.22304 -0.46825,0.0051 -0.46824,0.12459 -0.46825,0.0821 -0.46823,-0.154035 -0.46826,0.211485 -0.46825,-0.28981 -0.46823,0.216735 -0.46826,-0.0728 -0.46823,-0.0088 -0.46825,0.193405 -0.46825,-0.155135 -0.46824,0.233215 -0.46825,-0.01425 -0.46825,0.337415 -0.46823,0.156085 -0.46826,0.22763 -0.46823,0.442 -0.46825,0.170245 -0.46824,0.51561 -0.46825,0.295045 -0.46825,0.528775 -0.46824,0.12381 -0.46823,0.402405 -0.46827,0.462235 -0.46824,-0.0369 -0.46823,0.309965 -0.46825,-0.0115 -0.46825,0.12662 -0.46824,0.232575 -0.46825,-0.11295 -0.46825,0.312275 -0.46824,0.06541 -0.46825,0.381605 -0.46823,0.581635 -0.46825,0.377745 -0.46824,-0.04135 -0.46825,-0.411455 -0.46825,-0.37074 -0.46824,-0.40561 -0.46825,-0.41434 -0.46824,-0.42169 -0.46824,-0.338805 -0.46826,-0.40668 -0.46824,-0.44101 -0.46824,-0.37857 -0.46824,-0.49229 -0.46825,-0.40259 -0.46824,-0.400955 -0.46825,-0.26027 -0.46825,-0.43576 -0.46824,-0.249435 -0.46825,-0.389635 -0.46823,-0.44516 -0.46825,0.22174 -0.46824,0.243165 -0.46825,0.25368 -0.46825,0.26187 -0.46824,-0.02925 -0.46825,0.03755 -0.46825,0.02805 -0.46823,0.0408 -0.46824,0.16463 -0.46827,0.2265 -0.46823,0.20752 -0.46824,0.11058 -0.46825,0.126345 -0.46825,0.0679 -0.46824,0.104905 -0.46825,0.09404 -0.46825,-0.07278 -0.46824,-0.135805 -0.46823,-0.260815 -0.46825,-0.416415 -0.46825,-0.401395 -0.46824,-0.332965 -0.46825,-0.29875 -0.46825,-0.182265 -0.46824,-0.22925 -0.46825,-0.15622 -0.46823,-0.23384 -0.46825,-0.16788 -0.46826,-0.221615 -0.46823,-0.340075 -0.46825,-0.28325 -0.46824,-0.01175 -0.46825,-0.0256 -0.46825,0.0458 -0.46824,0.0818 -0.46823,0.07203 -0.46826,-0.229415 -0.46824,-0.14496 -0.46824,-0.15013 -0.46825,0.01125 -0.46825,-0.09949 -0.46824,-0.06693 -0.46825,0.0135 -0.46823,-0.0381 -0.46826,-0.0092 -0.46823,-0.117125 -0.46825,-0.13681 -0.46826,0.05703 -0.46823,0.18338 -0.46825,0.289765 -0.46824,0.43918 -0.46825,0.45836 -0.46825,0.31813 -0.46824,0.19789 -0.46824,0.223695 -0.46826,0.170895 -0.46823,0.393985 -0.46824,0.621505 -0.46825,0.7511 -0.46825,0.769985 -0.46824,0.920015 -0.46824,1.05339 -0.46825,1.051105 -0.46825,1.08482 -0.46824,1.182845 -0.46824,1.120335 -0.46825,1.03331 -0.46825,1.07994 -0.46824,1.126235 -0.46824,1.40886 -0.46825,1.308 -0.46825,1.4595 -0.46824,1.39206 -0.46825,1.46985 -0.46823,1.64479 -0.46826,1.3602 -0.46824,1.72847 -0.46824,1.631285 -0.46825,1.86102 -0.46825,1.83781 -0.46824,1.64741 -0.46824,1.91734 -0.46825,1.81743 -0.46824,2.11812 -0.46824,2.09501 -0.46825,2.0506 -0.46825,2.11091 -0.46824,2.13585 -0.46824,2.3206 -0.46826,2.41317 -0.46823,2.4075 -0.46825,2.31712 -0.46825,2.22433 -0.46824,2.15727 -0.46824,2.44197 -0.46825,2.45321 -0.46825,2.57543 -0.46824,2.63573 -0.46824,2.29367 -0.46825,2.23294 -0.46824,2.12632 -0.46825,2.36819 -0.46824,2.06704 -0.46825,2.13776 -0.46824,2.17529 -0.46825,1.85563 -0.46824,2.01147 -0.46824,1.94451 -0.46826,2.03944 -0.46824,1.9041 -0.46824,1.79531 -0.46825,2.10401 -0.46825,1.62953 -0.46824,1.74416 -0.46824,1.83262 -0.46825,1.98046 -0.46824,1.61367 -0.468242,0.7931 -0.468245,0.85635 -0.46825,0.83547 -0.468245,1.18514 -0.46824,0.87692 -0.468245,0.89725 -0.468245,0.92926 -0.46825,0.85377 -0.468235,1.223 -0.46825,0.75332 -0.468245,1.08495 -0.468245,0.87273 -0.46824,0.45 -0.468255,0.32844 -0.46824,0.25487 -0.468245,0.91933 -0.468245,0.64077 -0.46825,0.94521 -0.468235,0.88875 -0.46825,0.10928 -0.468245,0.46712 -0.468245,0.47345 -0.468245,1.24959 -0.46824,1.23946 -0.46825,1.26492 -0.468245,1.49464 -0.468245,0.66406 -0.46824,0.90786 -0.468245,0.0485 -0.468245,-0.70697 -0.46825,-0.72886 -0.46824,-1.25946 -0.46825,-1.76656 -0.46824,-1.937 -0.468245,-2.24464 -0.46825,-2.8321 -0.468245,-3.15051 -0.46824,-3.17595 -0.468245,-3.18662 -0.468245,-3.25964 -0.46825,-2.9384 -0.468235,-2.72187 -0.46825,-2.86882 -0.468245,-3.53824 -0.468245,-3.96305 -0.46824,-4.29211 -0.468245,-4.87566 -0.46825,-4.59832 -0.468245,-4.3188 -0.46824,-4.53676 -0.468245,-3.44266 -0.468245,-3.38108 -0.46825,-3.37181 -0.468245,-3.29591 -0.468245,-3.07781 -0.468245,-3.86465 -0.46824,-2.41812 -0.468245,-2.2885 -0.46825,-2.2688 -0.46824,-2.40484 -0.468245,-2.2835 -0.468245,-2.91822 -0.468245,-2.88666 -0.46825,-2.98706 -0.468235,-3.14173 -0.46825,-2.685625 -0.468245,-2.87085 -0.468245,-2.75868 -0.46825,-2.91721 -0.468235,-2.304425 -0.46825,-2.265015 -0.468245,-1.80667 -0.468245,-1.832295 -0.46825,-1.965315 -0.468235,-1.646745 -0.46825,-2.39134 -0.468245,-1.778625 -0.468245,-2.07149 -0.46824,-2.206925 -0.468245,-2.334395 -0.46825,-2.417905 -0.46824,-2.24686 -0.468245,-2.63406 -0.46825,-1.53949 -0.46824,-1.515 -0.46825,-1.209075 -0.46824,-0.74193 -0.468245,-1.124725 -0.468245,-0.77933 -0.468245,-1.085555 -0.468245,-0.83336 -0.468245,-1.10156 -0.46824,-1.41185 -0.46825,-0.939865 -0.468245,-1.105055 -0.468245,-0.936555 -0.468245,-0.921435 -0.46824,-0.847745 -0.46825,-0.56792 -0.468245,-0.85022 -0.468245,-1.16362 -0.468245,-0.97189 -0.46824,-0.92847 -0.46825,-1.022735 -0.46824,-1.06891 -0.468245,-0.93817 -0.468245,-0.942625 -0.468245,-0.643405 -0.46825,-0.356505 -0.46824,-0.34497 -0.468247,-0.39537 -0.468243,-0.568515 -0.468246,-0.358795 -0.468247,-0.308255 -0.468243,-0.07273 -0.468246,-0.1969 L 45.416158,28.06716 44.947912,27.90334 44.479669,27.564 44.011423,27.37714 43.54318,27.01348 43.074934,26.53159 42.606687,25.925725 42.138445,25.22608 l -0.468247,-0.49614 -0.468243,-0.10521 0.105313,-0.0223 h 0.36293 0.1091 0.359147 0.195823 0.272419 0.243065 0.225182 0.265663 0.202583 0.280316 0.187927 0.290878 z"
       style="fill:#6ac030;fill-opacity:0.2;fill-rule:nonzero;stroke:none;stroke-width:0.5"
       id="path4991" />
    <path
       d="m 31.837017,24.62501 h 0.468246 0.468243 0.468246 0.468247 0.468242 0.468247 0.468243 0.468246 0.468243 0.468246 0.468247 0.468242 0.468247 0.468242 0.468247 0.468242 0.468247 0.468243 0.468246 0.468246 l 0.468243,0.003 0.468247,0.07662 0.468242,0.12593 0.468247,0.12375 0.468246,0.118375 0.468243,0.109195 0.468246,0.05566 0.468243,0.118405 0.468246,0.0532 0.468243,0.07447 0.468246,0.07428 0.468243,0.02865 0.468247,0.174835 0.468246,0.188525 0.468243,0.25615 0.468247,0.18486 0.46824,0.21277 0.46825,0.242935 0.468245,0.3336 0.468245,0.374085 0.468245,0.338685 0.46824,0.370145 0.46825,0.360505 0.46824,0.35286 0.468245,0.4534 0.468245,0.512225 0.468245,0.42947 0.46825,0.302875 0.46824,0.425335 0.468245,0.3846 0.468245,0.397535 0.468245,0.571415 0.46825,0.35629 0.46824,0.697755 0.468245,0.49649 0.468245,0.34508 0.468245,0.50531 0.468245,0.351835 0.468245,0.678285 0.46824,0.468705 0.46825,0.77603 0.46824,1.010115 0.46825,1.05246 0.468245,1.76166 0.46824,1.37376 0.46825,1.5519 0.468245,1.49133 0.46824,1.44722 0.468245,1.410875 0.468245,1.3488 0.46825,1.72493 0.468235,1.53253 0.46825,1.713105 0.468245,1.524735 0.468245,1.62326 0.46825,1.695555 0.468235,1.758685 0.46825,2.19589 0.468245,2.357225 0.468245,2.5233 0.46825,2.492785 0.468235,2.723995 0.46825,2.463855 0.468245,2.177395 0.468245,1.877335 0.468245,1.685595 0.46824,1.923475 0.46825,1.527545 0.468245,1.663055 0.46824,2.032335 0.468245,2.97081 0.468245,2.677045 0.468245,2.83232 0.46825,3.155625 0.468245,3.19559 0.468245,3.42764 0.46824,4.3063 0.468245,4.18544 0.46825,4.54795 0.468245,4.6947 0.46824,4.2384 0.468245,3.8517 0.468245,3.5493 0.46825,3.06279 0.468235,3.08367 0.46825,3.32824 0.468245,3.7648 0.468245,3.63743 0.46824,3.79183 0.468245,3.71202 0.46825,3.49389 0.468245,2.79066 0.46824,2.08447 0.46825,1.45652 0.46824,1.23915 0.46825,0.77482 0.468245,0.59357 0.468245,-0.2273 0.46824,-0.74815 0.468245,-0.3757 0.468245,-1.0668 0.46825,-0.73996 0.46824,-0.85732 0.468245,-0.87826 0.468245,-0.43692 0.468245,-0.74637 0.46825,-0.33994 0.468235,-0.87639 0.46825,-0.76703 0.468245,-0.37316 0.468245,-1.01263 0.46824,-0.6482 0.468255,-0.90565 0.46824,-0.79976 0.468245,-0.78141 0.468245,-0.80632 0.46825,-0.48659 0.468235,-0.79635 0.46825,-0.38196 0.468245,-0.47078 0.468245,-0.54033 0.46824,-0.74525 0.468245,-0.95919 0.46825,-0.70713 0.468245,-0.64416 0.468242,-0.40726 0.46824,-0.86657 0.46825,-1.16361 0.46824,-1.42676 0.46824,-1.51197 0.46825,-1.51471 0.46825,-1.90249 0.46824,-1.59738 0.46824,-1.78034 0.46826,-2.07399 0.46824,-1.99526 0.46824,-2.01282 0.46825,-2.05241 0.46824,-2.2051 0.46825,-2.13744 0.46824,-2.06927 0.46825,-2.30655 0.46824,-2.20571 0.46825,-2.26844 0.46824,-2.28327 0.46824,-2.42017 0.46825,-2.51322 0.46825,-2.48555 0.46824,-2.47323 0.46824,-2.20629 0.46825,-2.24986 0.46825,-2.23737 0.46823,-2.2388 0.46826,-2.22682 0.46824,-2.08768 0.46824,-1.936585 0.46825,-1.84459 0.46825,-1.791655 0.46824,-1.695585 0.46824,-1.68146 0.46825,-1.64044 0.46824,-1.669955 0.46824,-1.535935 0.46825,-1.537915 0.46825,-1.471545 0.46824,-1.29776 0.46824,-1.25865 0.46826,-1.115585 0.46823,-1.200135 0.46825,-1.15355 0.46824,-1.035885 0.46825,-1.111835 0.46825,-1.007385 0.46824,-1.039975 0.46824,-0.87645 0.46825,-0.79442 0.46825,-0.803805 0.46824,-0.88162 0.46824,-0.97255 0.46825,-0.865445 0.46825,-0.846345 0.46824,-0.77318 0.46824,-0.70227 0.46825,-0.68292 0.46825,-0.610965 0.46824,-0.541395 0.46823,-0.46561 0.46826,-0.362545 0.46824,-0.43428 0.46824,-0.39243 0.46825,-0.397825 0.46825,-0.361495 0.46824,-0.4386 0.46825,-0.32016 0.46823,-0.29747 0.46826,-0.209395 0.46825,-0.11473 0.46823,-0.154145 0.46826,-0.179935 0.46823,-0.138715 0.46825,-0.0823 0.46824,-0.09387 0.46825,-0.09656 0.46825,-0.12828 0.46824,-0.0486 0.46824,-0.03405 0.46826,0.03625 0.46823,-0.09439 0.46824,-0.0567 0.46825,-0.07466 0.46825,-0.001 0.46824,0.0216 0.46825,0.16098 0.46823,0.149735 0.46826,0.08786 0.46825,0.1205 0.46823,0.157485 0.46825,0.12207 0.46824,0.15637 0.46825,0.09188 0.46825,0.152145 0.46824,0.20471 0.46825,0.17638 0.46825,0.199765 0.46823,0.133575 0.46824,0.09544 0.46825,0.05867 0.46825,-0.0078 0.46824,-0.04165 0.46825,-0.0086 0.46825,-0.10562 0.46824,-0.107145 0.46823,-0.09523 0.46827,-0.13791 0.46824,-0.14258 0.46823,-0.0458 0.46825,-0.13591 0.46825,-0.141845 0.46824,-0.09893 0.46825,-0.23454 0.46825,-0.250915 0.46824,-0.264785 0.46825,-0.223255 0.46823,0.370075 0.46825,0.26379 0.46824,0.118335 0.46825,0.230865 0.46825,0.113435 0.46824,0.168255 0.46825,0.184265 0.46824,0.25597 0.46824,0.212615 0.46824,0.27107 0.46826,0.252685 0.46824,0.18309 0.46824,0.22748 0.46825,0.232805 0.46824,0.191175 0.46825,0.139315 0.46825,0.16673 0.46824,-0.0153 0.46825,-0.2565 0.46823,-0.378525 0.46825,-0.37196 0.46824,-0.27994 0.46825,-0.28946 0.46825,-0.11392 0.46824,-0.17169 0.46825,-0.15178 0.46825,-0.119385 0.46823,-0.275085 0.46824,-0.05949 0.46827,-0.30626 0.46823,-0.31595 0.46824,-0.0684 0.46825,-0.3018 0.46825,-0.12047 0.46824,-0.32457 0.46825,-0.004 0.46823,-0.26595 0.46826,-0.09264 0.46823,-0.06468 0.46825,-0.220355 0.46825,0.04605 0.46824,-0.16521 0.46825,0.120345 0.46825,-0.10591 0.46823,0.06229 0.46826,0.103455 0.46823,-0.173965 0.46825,0.14972 0.46826,-0.164275 0.46823,0.0242 0.46825,-0.037 0.46824,-0.12367 0.46825,2.6e-4 0.46825,-0.19876 0.46824,-0.058 0.46823,-0.12729 0.46826,-0.09692 0.46824,-0.05191 0.46824,-0.21359 0.46825,0.01875 0.46825,-0.09142 0.46824,-0.104275 0.46825,0.16757 0.46823,-0.01135 0.46826,-0.03415 0.46823,0.116455 0.46825,0.0109 0.46825,-0.04095 0.46824,-0.22623 0.46825,-0.03035 0.46824,-0.10396 0.46824,-0.386415 0.46826,-0.0364 0.46824,-0.384295 0.46824,-0.31912 0.46824,-0.25078 0.46825,-0.17984 0.46824,-0.22522 0.46825,-0.26268 0.46825,-0.31276 0.46824,-0.21721 0.46825,-0.19522 0.46823,-0.36035 0.46826,-0.09859 0.46823,-0.117595 0.46825,-0.20488 0.46825,-0.189255 0.46824,-0.0156 0.46824,-0.165225 0.46826,-0.01785 0.46824,0.12175 0.46825,-0.0999 0.46825,0.01425 0.46823,0.112535 0.46824,0.07503 0.46825,0.121795 0.46823,0.207945 0.46826,0.355105 0.46825,-0.296555 0.46825,0.450895 0.46824,0.31935 0.46823,0.3689 0.46825,-0.0045 0.46825,0.09404 0.46824,-0.476365 0.46827,0.55722 0.46823,-0.0294 0.46824,0.127365 0.46825,0.27628 0.46823,0.06224 0.28601,-0.197175"
       style="fill:none;stroke:#6ac030;stroke-width:1.5;stroke-linecap:butt;stroke-linejoin:round;stroke-miterlimit:10;stroke-dasharray:none;stroke-opacity:1"
       id="path4995" />
    <path
       d="m 31.837017,24.62501 h 0.468246 0.468243 0.468246 0.468247 0.468242 0.468247 0.468243 0.468246 0.468243 0.468246 0.468247 0.468242 0.468247 0.468242 0.468247 0.468242 0.468247 0.468243 0.468246 0.468246 l 0.468243,0.10521 0.468247,0.49614 0.468242,0.699645 0.468247,0.605865 0.468246,0.48189 0.468243,0.36366 0.468246,0.18686 0.468243,0.33934 0.468246,0.16382 0.468243,0.189725 0.468246,0.1969 0.468243,0.07272 0.468247,0.308255 0.468246,0.358795 0.468243,0.568515 0.468247,0.39537 0.46824,0.34497 0.46825,0.356505 0.468245,0.643405 0.468245,0.942625 0.468245,0.93817 0.46824,1.06891 0.46825,1.022735 0.46824,0.92847 0.468245,0.97189 0.468245,1.16362 0.468245,0.85022 0.46825,0.56792 0.46824,0.847745 0.468245,0.921435 0.468245,0.936555 0.468245,1.105055 0.46825,0.939865 0.46824,1.41185 0.468245,1.10156 0.468245,0.83336 0.468245,1.085555 0.468245,0.77933 0.468245,1.124725 0.46824,0.74193 0.46825,1.209075 0.46824,1.515 0.46825,1.53949 0.468245,2.63406 0.46824,2.24686 0.46825,2.417905 0.468245,2.334395 0.46824,2.206925 0.468245,2.07149 0.468245,1.778625 0.46825,2.39134 0.468235,1.646745 0.46825,1.965315 0.468245,1.832295 0.468245,1.80667 0.46825,2.265015 0.468235,2.304425 0.46825,2.91721 0.468245,2.75868 0.468245,2.87085 0.46825,2.685625 0.468235,3.14173 0.46825,2.98706 0.468245,2.88666 0.468245,2.91823 0.468245,2.2835 0.46824,2.40484 0.46825,2.2688 0.468245,2.2885 0.46824,2.41812 0.468245,3.86465 0.468245,3.07781 0.468245,3.2959 0.46825,3.37181 0.468245,3.38108 0.468245,3.44266 0.46824,4.53676 0.468245,4.3188 0.46825,4.59832 0.468245,4.87566 0.46824,4.29212 0.468245,3.96305 0.468245,3.53824 0.46825,2.86882 0.468235,2.72187 0.46825,2.9384 0.468245,3.25964 0.468245,3.18662 0.46824,3.17594 0.468245,3.15052 0.46825,2.83209 0.468245,2.24465 0.46824,1.937 0.46825,1.76655 0.46824,1.25947 0.46825,0.72886 0.468245,0.70697 0.468245,-0.0485 0.46824,-0.90785 0.468245,-0.66406 0.468245,-1.49464 0.46825,-1.26493 0.46824,-1.23945 0.468245,-1.24959 0.468245,-0.47346 0.468245,-0.46713 0.46825,-0.10927 0.468235,-0.88876 0.46825,-0.9452 0.468245,-0.64077 0.468245,-0.91933 0.46824,-0.25487 0.468255,-0.32844 0.46824,-0.45 0.468245,-0.87272 0.468245,-1.08496 0.46825,-0.75331 0.468235,-1.22301 0.46825,-0.85378 0.468245,-0.92925 0.468245,-0.89725 0.46824,-0.87692 0.468245,-1.18514 0.46825,-0.83547 0.468245,-0.85636 0.468242,-0.79309 0.46824,-1.61367 0.46825,-1.98046 0.46824,-1.83262 0.46824,-1.74416 0.46825,-1.62952 0.46825,-2.10401 0.46824,-1.79531 0.46824,-1.9041 0.46826,-2.03944 0.46824,-1.94451 0.46824,-2.01149 0.46825,-1.85562 0.46824,-2.17528 0.46825,-2.13777 0.46824,-2.06704 0.46825,-2.36818 0.46824,-2.12632 0.46825,-2.23294 0.46824,-2.29367 0.46824,-2.63573 0.46825,-2.57545 0.46825,-2.4532 0.46824,-2.44197 0.46824,-2.15728 0.46825,-2.22433 0.46825,-2.31711 0.46823,-2.4075 0.46826,-2.41317 0.46824,-2.3206 0.46824,-2.13585 0.46825,-2.11091 0.46825,-2.0506 0.46824,-2.09501 0.46824,-2.11813 0.46825,-1.81742 0.46824,-1.91733 0.46824,-1.64741 0.46825,-1.83781 0.46825,-1.86103 0.46824,-1.631285 0.46824,-1.72847 0.46826,-1.3602 0.46823,-1.64479 0.46825,-1.46985 0.46824,-1.39206 0.46825,-1.4595 0.46825,-1.308 0.46824,-1.40886 0.46824,-1.126235 0.46825,-1.07994 0.46825,-1.03331 0.46824,-1.120335 0.46824,-1.182845 0.46825,-1.08482 0.46825,-1.051105 0.46824,-1.05339 0.46824,-0.920015 0.46825,-0.769985 0.46825,-0.7511 0.46824,-0.621505 0.46823,-0.393985 0.46826,-0.170895 0.46824,-0.223695 0.46824,-0.19789 0.46825,-0.31813 0.46825,-0.45836 0.46824,-0.43918 0.46825,-0.289765 0.46823,-0.18338 0.46826,-0.05703 0.46825,0.13681 0.46823,0.117125 0.46826,0.0092 0.46823,0.0381 0.46825,-0.0135 0.46824,0.06693 0.46825,0.09948 0.46825,-0.01125 0.46824,0.15013 0.46824,0.14496 0.46826,0.229415 0.46823,-0.07203 0.46824,-0.0818 0.46825,-0.0458 0.46825,0.0256 0.46824,0.01175 0.46825,0.28325 0.46823,0.340075 0.46826,0.221615 0.46825,0.16788 0.46823,0.23384 0.46825,0.15622 0.46824,0.22925 0.46825,0.182265 0.46825,0.29875 0.46824,0.332965 0.46825,0.401395 0.46825,0.416415 0.46823,0.260815 0.46824,0.135805 0.46825,0.07279 0.46825,-0.09404 0.46824,-0.104905 0.46825,-0.0679 0.46825,-0.126345 0.46824,-0.11058 0.46823,-0.20752 0.46827,-0.2265 0.46824,-0.16463 0.46823,-0.0408 0.46825,-0.02805 0.46825,-0.03755 0.46824,0.02925 0.46825,-0.26187 0.46825,-0.25368 0.46824,-0.243165 0.46825,-0.22174 0.46823,0.44516 0.46825,0.389635 0.46824,0.249435 0.46825,0.43576 0.46825,0.26027 0.46824,0.400955 0.46825,0.40259 0.46824,0.49229 0.46824,0.37857 0.46824,0.44101 0.46826,0.40668 0.46824,0.338805 0.46824,0.42169 0.46825,0.41434 0.46824,0.40561 0.46825,0.37074 0.46825,0.411455 0.46824,0.04135 0.46825,-0.377745 0.46823,-0.581635 0.46825,-0.381605 0.46824,-0.06542 0.46825,-0.312275 0.46825,0.11295 0.46824,-0.232575 0.46825,-0.12662 0.46825,0.0115 0.46823,-0.309965 0.46824,0.0369 0.46827,-0.462235 0.46823,-0.402405 0.46824,-0.12381 0.46825,-0.528775 0.46825,-0.295045 0.46824,-0.51561 0.46825,-0.170245 0.46823,-0.442 0.46826,-0.22763 0.46823,-0.156085 0.46825,-0.337415 0.46825,0.01425 0.46824,-0.233215 0.46825,0.155135 0.46825,-0.193405 0.46823,0.0088 0.46826,0.0728 0.46823,-0.216735 0.46825,0.28981 0.46826,-0.211485 0.46823,0.154035 0.46825,-0.0821 0.46824,-0.12459 0.46825,-0.0051 0.46825,-0.22304 0.46824,0.0309 0.46823,-0.12717 0.46826,-0.04275 0.46824,-0.0488 0.46824,-0.307985 0.46825,0.01225 0.46825,-0.067 0.46824,-0.07371 0.46825,0.295085 0.46823,0.09864 0.46826,0.109405 0.46823,0.273985 0.46825,0.05787 0.46825,0.0402 0.46824,-0.388825 0.46825,-0.13957 0.46824,-0.20833 0.46824,-0.65416 0.46826,-0.164045 0.46824,-0.65564 0.46824,-0.507205 0.46824,-0.41107 0.46825,-0.321165 0.46824,-0.340015 0.46825,-0.358445 0.46825,-0.4801 0.46824,-0.377075 0.46825,-0.294875 0.46823,-0.52367 0.46826,-0.29811 0.46823,-0.285855 0.46825,-0.323045 0.46825,-0.24794 0.46824,-0.190295 0.46824,-0.28563 0.46826,-0.05306 0.46824,0.0169 0.46825,-0.36687 0.46825,-0.13377 0.46823,-0.0458 0.46824,-0.232495 0.46825,-0.01625 0.46823,0.18469 0.46826,0.437575 0.46825,-0.358595 0.46825,0.376435 0.46824,0.32832 0.46823,0.284625 0.46825,-0.17456 0.46825,-0.10596 0.46824,-0.651775 0.46827,0.07341 0.46823,-0.583055 0.46824,-0.158525 0.46825,-0.09005 0.46823,-0.15378 0.28601,-0.5251"
       style="fill:none;stroke:#4db31a;stroke-width:1;stroke-linecap:butt;stroke-linejoin:bevel;stroke-miterlimit:1;stroke-dasharray:4, 4;stroke-dashoffset:0;stroke-opacity:1"
       id="path4999" />
    <path
       d="m 31.837017,24.62501 h 0.468246 0.468243 0.468246 0.468247 0.468242 0.468247 0.468243 0.468246 0.468243 0.468246 0.468247 0.468242 0.468247 0.468242 0.468247 0.468242 0.468247 0.468243 0.468246 0.468246 l 0.105313,-0.0223"
       style="fill:none;stroke:#4db31a;stroke-width:1;stroke-linecap:butt;stroke-linejoin:bevel;stroke-miterlimit:1;stroke-dasharray:4, 4;stroke-dashoffset:0;stroke-opacity:1"
       id="path5003" />
    <path
       d="m 62.880743,24.602685 0.32868,0.45505 0.46824,0.6875 0.468245,0.75026 0.468245,0.918975 0.46825,1.05853 0.468235,1.41832 0.46825,1.46091 0.468245,1.217145 0.468245,1.43988 0.46825,1.126085 0.468235,1.21295 0.46825,1.474565 0.468245,1.955765 0.468245,2.17575 0.46825,2.29996 0.468235,2.30624 0.46825,1.94066 0.468245,1.46811 0.468245,0.83647 0.468245,1.087665 0.46824,1.442105 0.46825,0.786315 0.468245,1.0376 0.46824,1.64656 0.468245,2.076965 0.468245,2.276275 0.468245,2.368745 0.46825,2.939425 0.468245,3.010115 0.468245,3.41261 0.46824,4.075855 0.468245,4.052075 0.46825,4.497575 0.468245,4.513735 0.46824,4.184705 0.468245,3.740345 0.468245,3.56036 0.46825,3.25675 0.468235,3.44547 0.46825,3.7181 0.468245,4.26995 0.468245,4.08824 0.46824,4.40771 0.468245,4.27353 0.46825,4.1557 0.468245,3.33667 0.46824,2.23192 0.46825,1.14649 0.46824,1.21885 0.46825,0.82077 0.468245,0.48015 0.468245,-0.40608 0.46824,-0.58841 0.468245,-0.0874 0.468245,-0.63896 0.46825,-0.215 0.46824,-0.4752 0.468245,-0.50694 0.468245,-0.40036 0.468245,-1.02562 0.46825,-0.57061 0.468235,-0.86403 0.46825,-0.58885 0.468245,-0.10556 0.468245,-1.10592 0.46824,-1.04152 0.468255,-1.48285 0.46824,-1.14956 0.468245,-0.69008 0.468245,-0.52766 0.46825,-0.21988 0.468235,-0.36969 0.46825,0.0899 0.468245,-0.0123 0.468245,-0.18345 0.46824,-0.61357 0.468245,-0.73327 0.46825,-0.57877 0.468245,-0.43195 0.468242,-0.0215 0.46824,-0.11945 0.46825,-0.34675 0.46824,-1.02089 0.46824,-1.27984 0.46825,-1.39985 0.46825,-1.70098 0.46824,-1.39946 0.46824,-1.6566 0.46826,-2.10851 0.46824,-2.046 0.46824,-2.01419 0.46825,-2.24919 0.46824,-2.2349 0.46825,-2.13711 0.46824,-2.07152 0.46825,-2.24491 0.46824,-2.28511 0.46825,-2.30394 0.46824,-2.272845 0.46824,-2.204635 0.46825,-2.45099 0.46825,-2.5179 0.46824,-2.504485 0.46824,-2.25531 0.46825,-2.27536 0.46825,-2.157635 0.46823,-2.070115 0.46826,-2.040455 0.46824,-1.85475 0.46824,-1.737335 0.46825,-1.578275 0.46825,-1.532715 0.46824,-1.29616 0.46824,-1.24478 0.46825,-1.46344 0.46824,-1.42261 0.46824,-1.42445 0.46825,-1.23801 0.46825,-1.08209 0.46824,-0.96422 0.46824,-0.78882 0.46826,-0.87097 0.46823,-0.755475 0.46825,-0.83728 0.46824,-0.67972 0.46825,-0.764145 0.46825,-0.70679 0.46824,-0.671095 0.46824,-0.62663 0.46825,-0.508915 0.46825,-0.57428 0.46824,-0.64291 0.46824,-0.76227 0.46825,-0.64607 0.46825,-0.64159 0.46824,-0.492965 0.46824,-0.48454 0.46825,-0.59586 0.46825,-0.47081 0.46824,-0.461285 0.46823,-0.53725 0.46826,-0.55418 0.46824,-0.64487 0.46824,-0.58696 0.46825,-0.477505 0.46825,-0.26465 0.46824,-0.438005 0.46825,-0.35057 0.46823,-0.411545 0.46826,-0.36177 0.46825,-0.366255 0.46823,-0.42543 0.46826,-0.36905 0.46823,-0.31554 0.46825,-0.151105 0.46824,-0.25467 0.46825,-0.292585 0.46825,-0.2453 0.46824,-0.247345 0.46824,-0.213015 0.46826,-0.156905 0.46823,-0.11676 0.46824,-0.0316 0.46825,-0.103535 0.46825,-0.02725 0.46824,0.03145 0.46825,0.0387 0.46823,-0.0406 0.46826,-0.0459 0.46825,0.07312 0.46823,0.08113 0.46825,0.08792 0.46824,0.08349 0.46825,0.0015 0.46825,0.0055 0.46824,0.07646 0.46825,-0.04865 0.46825,-0.01685 0.46823,0.0064 0.46824,0.05508 0.46825,0.04455 0.46825,0.07841 0.46824,0.0216 0.46825,0.05081 0.46825,-0.0849 0.46824,-0.103715 0.46823,0.01705 0.46827,-0.0493 0.46824,-0.12053 0.46823,-0.05076 0.46825,-0.24379 0.46825,-0.246125 0.46824,-0.22711 0.46825,-0.20723 0.46825,-0.248155 0.46824,-0.286405 0.46825,-0.224765 0.46823,0.294985 0.46825,0.137955 0.46824,-0.0128 0.46825,0.026 0.46825,-0.0334 0.46824,-0.06444 0.46825,-0.0341 0.46824,0.01965 0.46824,0.04665 0.46824,0.101135 0.46826,0.09873 0.46824,0.02735 0.46824,0.03325 0.46825,0.05126 0.46824,-0.02325 0.46825,-0.09215 0.46825,-0.07797 0.46824,-0.0719 0.46825,-0.135255 0.46823,-0.17543 0.46825,-0.36229 0.46824,-0.49446 0.46825,-0.266665 0.46825,-0.34079 0.46824,-0.11081 0.46825,-0.176955 0.46825,-0.25029 0.46823,-0.24019 0.46824,-0.15588 0.46827,-0.150285 0.46823,-0.22946 0.46824,-0.01305 0.46825,-0.07481 0.46825,0.0541 0.46824,-0.13353 0.46825,0.162325 0.46823,-0.08992 0.46826,0.0424 0.46823,0.0267 0.46825,-0.1033 0.46825,0.07782 0.46824,-0.09721 0.46825,0.08557 0.46825,-0.0184 0.46823,0.115815 0.46826,0.13411 0.46823,-0.13118 0.46825,0.0096 0.46826,-0.11705 0.46823,-0.10568 0.46825,0.0081 0.46824,-0.122755 0.46825,0.0056 0.46825,-0.17447 0.46824,-0.146895 0.46823,-0.127395 0.46826,-0.15114 0.46824,-0.05501 0.46824,-0.119215 0.46825,0.0253 0.46825,-0.11583 0.46824,-0.134825 0.46825,0.04005 0.46823,-0.121305 0.46826,-0.17766 0.46823,-0.0411 0.46825,-0.03605 0.46825,-0.122085 0.46824,-0.06366 0.46825,0.07892 0.46824,4.15e-4 0.46824,-0.11867 0.46826,0.09119 0.46824,-0.11295 0.46824,-0.13101 0.46824,-0.0905 0.46825,-0.0385 0.46824,-0.110425 0.46825,-0.166915 0.46825,-0.14542 0.46824,-0.05734 0.46825,-0.09555 0.46823,-0.197055 0.46826,0.100925 0.46823,0.05067 0.46825,-0.08671 0.46825,-0.13057 0.46824,0.159115 0.46824,-0.0448 0.46826,0.0174 0.46824,0.226595 0.46825,0.16707 0.46825,0.16223 0.46823,0.27086 0.46824,0.382565 0.46825,0.259815 0.46823,0.2312 0.46826,0.272645 0.46825,-0.234515 0.46825,0.52536 0.46824,0.31038 0.46823,0.453155 0.46825,0.165955 0.46825,0.294005 0.46824,-0.30093 0.46827,1.041015 0.46823,0.52426 0.46824,0.413255 0.46825,0.64261 0.46823,0.27824 0.28601,0.13077"
       style="fill:none;stroke:#4db31a;stroke-width:1;stroke-linecap:butt;stroke-linejoin:bevel;stroke-miterlimit:1;stroke-dasharray:4, 4;stroke-dashoffset:0;stroke-opacity:1"
       id="path5007" />
    <text
       xml:space="preserve"
       transform="scale(1,-1)"
       style="font-variant:normal;font-weight:normal;font-size:8.1px;font-family:Arial;-inkscape-font-specification:ArialMT;writing-mode:lr-tb;fill:#000000;fill-opacity:1;fill-rule:nonzero;stroke:none;stroke-width:0.5"
       id="text5015"
       x="133.00748"
       y="-199.50002"><tspan
         x="133.00748 139.75478 144.25838 148.76196"
         y="-199.50002"
         sodipodi:role="line"
         id="tspan5013"
         style="stroke-width:0.5">Mean</tspan></text>
    <path
       d="m 116.50747,202.25001 h 15"
       style="fill:none;stroke:#6ac030;stroke-width:1.5;stroke-linecap:butt;stroke-linejoin:round;stroke-miterlimit:10;stroke-dasharray:none;stroke-opacity:1"
       id="path5019" />
    <text
       xml:space="preserve"
       transform="scale(1,-1)"
       style="font-variant:normal;font-weight:normal;font-size:8.1px;font-family:Arial;-inkscape-font-specification:ArialMT;writing-mode:lr-tb;fill:#000000;fill-opacity:1;fill-rule:nonzero;stroke:none;stroke-width:0.5"
       id="text5027"
       x="133.00748"
       y="-190.00002"><tspan
         x="133.00748 138.40207 140.64577 145.14937 149.65297 154.15657 158.66017 161.35747 165.86107 168.10477 172.60837 177.11197 181.16197 182.96017 187.46378 189.70747 191.50568 196.00928"
         y="-190.00002"
         sodipodi:role="line"
         id="tspan5025"
         style="stroke-width:0.5">Standard deviation</tspan></text>
    <path
       d="m 116.50747,192.75001 h 15"
       style="fill:none;stroke:#4db31a;stroke-width:1;stroke-linecap:butt;stroke-linejoin:bevel;stroke-miterlimit:1;stroke-dasharray:4, 4;stroke-dashoffset:0;stroke-opacity:1"
       id="path5031" />
    <text
       xml:space="preserve"
       transform="matrix(0.99999842,0.0017767,0.0017767,-0.99999842,0,0)"
       style="font-style:normal;font-variant:normal;font-weight:normal;font-stretch:normal;font-size:9.9px;font-family:sans-serif;-inkscape-font-specification:'sans-serif, Normal';font-variant-ligatures:normal;font-variant-caps:normal;font-variant-numeric:normal;font-variant-east-asian:normal;writing-mode:lr-tb;fill:#262626;fill-opacity:1;fill-rule:nonzero;stroke:none;stroke-width:0.5"
       id="text4987-3"
       x="52.496899"
       y="-2.0746868"><tspan
         sodipodi:role="line"
         id="tspan5651"
         x="52.496899"
         y="-2.0746868">Distance from center (μm)</tspan></text>
  </g>
</svg>
